<?xml version="1.0" encoding="UTF-8"?>
<svg width="14px" height="14px" viewBox="0 0 14 14" version="1.1" xmlns="http://www.w3.org/2000/svg" xmlns:xlink="http://www.w3.org/1999/xlink">
    <!-- Generator: Sketch 51.1 (57501) - http://www.bohemiancoding.com/sketch -->
    <title>Combined Shape</title>
    <desc>Created with Sketch.</desc>
    <defs></defs>
    <g id="方案1" stroke="none" stroke-width="1" fill="none" fill-rule="evenodd">
        <g id="6.1首页-账户-方案二" transform="translate(-295.000000, -108.000000)" fill="#505160" fill-rule="nonzero">
            <g id="账户" transform="translate(0.000000, 58.000000)">
                <path d="M303,55 L303,53 L304,53 L304,55 L306,55 L306,56 L304,56 L304,58 L303,58 L303,56 L301,56 L301,55 L303,55 Z M296,53 L296,63 L306,63 L306,64 L295,64 L295,53 L296,53 Z M298,50 L309,50 L309,61 L298,61 L298,50 Z M299,51 L299,60 L308,60 L308,51 L299,51 Z" id="Combined-Shape"></path>
            </g>
        </g>
    </g>
</svg>
