<?xml version="1.0" encoding="UTF-8"?>
<svg width="12px" height="12px" viewBox="0 0 12 12" version="1.1" xmlns="http://www.w3.org/2000/svg" xmlns:xlink="http://www.w3.org/1999/xlink">
    <!-- Generator: Sketch 51.1 (57501) - http://www.bohemiancoding.com/sketch -->
    <title>lianjie (2)</title>
    <desc>Created with Sketch.</desc>
    <defs></defs>
    <g id="TRONLink" stroke="none" stroke-width="1" fill="none" fill-rule="evenodd">
        <g id="6.2首页-账户-方案二" transform="translate(-232.000000, -129.000000)" fill="#FFFFFF">
            <g id="更多" transform="translate(224.000000, 93.000000)">
                <g id="Group-4" transform="translate(8.000000, 34.000000)">
                    <path d="M11.7871062,4.49831365 L9.50233023,2.21353764 C9.36488103,2.07634028 9.17849273,1.9995487 8.98431447,2.000002 C8.79011942,2.00045529 8.60413406,2.0782374 8.46740677,2.21608953 L5.18894039,5.49369968 C5.05122258,5.63069559 4.97357478,5.81681526 4.97312148,6.01106068 C4.97260103,6.20530609 5.04932545,6.3918287 5.18638851,6.52947936 L5.45198595,7.00310575 L6.33648253,6.11860918 C6.19547413,5.97676134 6.19463469,5.81778901 6.33648253,5.67594117 L8.99086207,3.02241786 L10.9807947,5.01233369 L8.32725459,7.66587379 C8.18547391,7.80772163 8.02643443,7.80772163 7.88458659,7.66587379 L7.00094623,8.55127696 L7.47109736,8.81425537 C7.75808363,9.09914305 8.22140176,9.09801821 8.50694419,8.81170349 L11.7844872,5.53409333 C12.0708019,5.24861805 12.0719939,4.78523277 11.7871062,4.49831365 Z M6.55827823,8.99308875 L5.89465396,9.65664586 L5.67371449,9.87844155 C5.82246249,10.0271728 5.82330193,10.1706659 5.67371449,10.3202533 L3.02019118,12.9746497 L1.02856289,10.9838608 L3.68294243,8.3303375 C3.83252987,8.18075006 3.97609016,8.18158949 4.124771,8.3303375 L5.00925079,7.44584092 L4.52880818,7.18620346 C4.39122467,7.04927472 4.20490353,6.9725503 4.01077564,6.97307075 C3.81666453,6.97352404 3.63067917,7.05117184 3.49380078,7.18883929 L0.215418346,10.4663655 C-0.070778852,10.7515722 -0.0719540619,11.2147056 0.212799307,11.5013057 L2.49757532,13.7860818 C2.63515882,13.9230777 2.82147997,13.9997349 3.01559107,13.9992816 C3.20971896,13.9988115 3.39563718,13.9211637 3.53249877,13.7835131 L6.81096515,10.5059197 C7.09714556,10.2206963 7.09833756,9.75762997 6.81351704,9.47097947 L6.55827823,8.99308875 Z M3.9038819,10.7620651 L8.99086207,5.67594117 L8.32725459,5.01233369 L3.24027442,10.0984576 L3.9038819,10.7620651 Z" id="lianjie-(2)" transform="translate(6.000000, 7.999642) scale(-1, 1) translate(-6.000000, -7.999642) "></path>
                </g>
            </g>
        </g>
    </g>
</svg>