<?xml version="1.0" encoding="UTF-8"?>
<svg width="14px" height="14px" viewBox="0 0 14 14" version="1.1" xmlns="http://www.w3.org/2000/svg" xmlns:xlink="http://www.w3.org/1999/xlink">
    <!-- Generator: Sketch 51.1 (57501) - http://www.bohemiancoding.com/sketch -->
    <title>Shape</title>
    <desc>Created with Sketch.</desc>
    <defs></defs>
    <g id="方案1" stroke="none" stroke-width="1" fill="none" fill-rule="evenodd">
        <g id="6.1首页-账户-方案二" transform="translate(-75.000000, -182.000000)" fill="#F7F8FA" fill-rule="nonzero">
            <g id="账户" transform="translate(0.000000, 58.000000)">
                <g id="收款-copy-2" transform="translate(75.000000, 121.000000)">
                    <g id="Group-4">
                        <path d="M2,12 L0,12 L0,17 L5,17 L5,15 L2,15 L2,12 Z M0,8 L2,8 L2,5 L5,5 L5,3 L0,3 L0,8 Z M12,15 L9,15 L9,17 L14,17 L14,12 L12,12 L12,15 Z M9,3 L9,5 L12,5 L12,8 L14,8 L14,3 L9,3 Z" id="Shape"></path>
                    </g>
                </g>
            </g>
        </g>
    </g>
</svg>