<?xml version="1.0" encoding="UTF-8"?>
<svg width="21px" height="22px" viewBox="0 0 21 22" version="1.1" xmlns="http://www.w3.org/2000/svg" xmlns:xlink="http://www.w3.org/1999/xlink">
    <!-- Generator: Sketch 53.2 (72643) - https://sketchapp.com -->
    <title>分组</title>
    <desc>Created with Sketch.</desc>
    <g id="移动端" stroke="none" stroke-width="1" fill="none" fill-rule="evenodd">
        <g id="USDT" transform="translate(-42.000000, -210.000000)">
            <g id="收益" transform="translate(14.000000, 192.000000)">
                <g id="分组-3" transform="translate(20.000000, 11.000000)">
                    <g id="icon1" transform="translate(0.000000, 1.000000)">
                        <g id="分组" transform="translate(8.000000, 7.000000)">
                            <circle id="椭圆形-copy-3" fill-opacity="0.3" fill="#636ACC" cx="12.5" cy="9.5" r="2.5"></circle>
                            <circle id="椭圆形-copy-4" fill-opacity="0.3" fill="#636ACC" cx="14.5" cy="2.5" r="1.5"></circle>
                            <circle id="椭圆形" stroke="#636ACC" cx="12" cy="9" r="3"></circle>
                            <circle id="椭圆形-copy-2" stroke="#636ACC" cx="14" cy="2" r="2"></circle>
                            <path d="M2,20 L3.59842377,18.5741837 C3.82718874,18.3701221 4.13691175,18.2822622 4.43875217,18.3358055 L10.6217472,19.4326045 C10.8845243,19.4792184 11.155032,19.4188598 11.3730685,19.2649615 L19.9202329,13.2320565 C20.1838966,12.4106855 19.7939211,12 18.7503065,12 C17.7066919,12 16.0019699,12.7574597 13.6361404,14.272379" id="路径-3" stroke="#F28129" stroke-linecap="round"></path>
                            <path d="M0,16 L4.7962561,13.2907917 C5.2476838,13.0357987 5.78049332,12.9660753 6.28233368,13.0963237 L10.3381504,14.1489761 C10.7278814,14.2501275 11,14.6018879 11,15.0045316 L11,15.0045316 C11,15.3821717 10.6938621,15.6883096 10.316222,15.6883096 L7.11765592,15.6883096" id="路径-4" stroke="#F27E27" stroke-linecap="round"></path>
                            <path d="M2,20 L3.59842377,18.5741837 C3.82718874,18.3701221 4.13691175,18.2822622 4.43875217,18.3358055 L10.6217472,19.4326045 C10.8845243,19.4792184 11.155032,19.4188598 11.3730685,19.2649615 L19.9202329,13.2320565 C20.1838966,12.4106855 19.7939211,12 18.7503065,12 C17.7066919,12 16.0019699,12.7574597 13.6361404,14.272379" id="路径-3" stroke="#636ACC" stroke-linecap="round"></path>
                            <path d="M0,16 L4.7962561,13.2907917 C5.2476838,13.0357987 5.78049332,12.9660753 6.28233368,13.0963237 L10.3381504,14.1489761 C10.7278814,14.2501275 11,14.6018879 11,15.0045316 L11,15.0045316 C11,15.3821717 10.6938621,15.6883096 10.316222,15.6883096 L7.11765592,15.6883096" id="路径-4" stroke="#636ACC" stroke-linecap="round"></path>
                            <path d="M0.832971796,17.6296945 L5.27997326,14.8810964 C5.66247826,14.6446781 6.11349451,14.5440603 6.56021493,14.5954856 L9.29568792,14.9103559 C9.84436554,14.9735182 10.2379535,15.4695124 10.1747912,16.01819 C10.1713505,16.0480782 10.1665629,16.0777959 10.1604428,16.1072525 C10.1295611,16.2558894 10.296298,16.2693298 10.6606534,16.1475737 C11.2228844,15.9596938 12.6739163,14.9966734 13.5281671,14.6705158 C15.4760259,13.9268127 17.1150287,12.4482077 18.3865652,12.0688349 C19.1272787,11.8478373 19.6650903,12.1589817 20,13.0022682 L11.2922718,19.3302348 L4.55586901,18.1999444 L1.71323176,20.2951474 L0.653699876,18.2884684 C0.530904747,18.0559031 0.609261144,17.7679654 0.832971796,17.6296945 Z" id="路径-4-copy" fill-opacity="0.3" fill="#636ACC"></path>
                        </g>
                    </g>
                </g>
            </g>
        </g>
    </g>
</svg>