<?xml version="1.0" encoding="UTF-8"?>
<svg width="35px" height="32px" viewBox="0 0 35 32" version="1.1" xmlns="http://www.w3.org/2000/svg" xmlns:xlink="http://www.w3.org/1999/xlink">
    <!-- Generator: Sketch 53.2 (72643) - https://sketchapp.com -->
    <title>yingjian (1)</title>
    <desc>Created with Sketch.</desc>
    <g id="Page-1" stroke="none" stroke-width="1" fill="none" fill-rule="evenodd">
        <g id="初始页面" transform="translate(-162.000000, -425.000000)" fill="#ffffff">
            <g id="yingjian-(1)" transform="translate(162.000000, 425.000000)">
                <path d="M6.13644434,27 L28.8635557,27 C29.4910814,27 30,26.5522959 30,25.9999023 C30,25.447665 29.4910814,25 28.8635557,25 L6.13644434,25 C5.50891862,25 5,25.447665 5,25.9999023 C5,26.5522959 5.50891862,27 6.13644434,27 Z" id="Fill-1"></path>
                <path d="M34.9369727,19.7392415 L30.7438997,1.82273412 C30.4943424,0.754306647 29.5547656,0 28.4736393,0 L6.50179688,0 C5.42035156,0 4.48004557,0.755047389 4.23026042,1.82528042 L0.0630273438,19.7405378 C0.0210091146,19.9195659 0,20.1029458 0,20.2868349 L0,29.6296725 C0,30.9387948 1.0446224,32 2.33328776,32 L32.6667122,32 C33.9553776,32 35,30.9387948 35,29.6296725 L35,20.2868349 C35,20.1020198 34.9789909,19.9182696 34.9369727,19.7392415 Z M28.4736393,2.3703275 L32.6339453,20.148131 L18.5988997,20.148131 C18.6316667,20.0391031 18.6667578,19.928964 18.6667578,19.8092416 L18.6667578,16.592524 C18.6667578,16.4503942 18.6316667,16.3176625 18.5873242,16.1909031 C22.5236849,15.8281248 25.6666211,13.5324733 25.6666211,10.4937189 C25.6666211,7.47505711 22.5657031,5.19116492 18.6667578,4.80468288 L18.6667578,2.3703275 L28.4736393,2.3703275 Z M17.5,7.11121399 C20.8017122,7.11121399 23.3333333,8.76320712 23.3333333,10.4937189 C23.3333333,12.2240455 20.8017122,13.8762701 17.5,13.8762701 C14.1982878,13.8762701 11.6666667,12.2240455 11.6666667,10.4937189 C11.6666667,8.76320712 14.1982878,7.11121399 17.5,7.11121399 Z M6.50179687,2.3703275 L16.3332422,2.3703275 L16.3332422,4.80468288 C12.4342969,5.18991492 9.33337891,7.47505711 9.33337891,10.4937189 C9.33337891,13.5324733 12.4763151,15.8293748 16.4126758,16.1909031 C16.3636849,16.3190977 16.3368424,16.4551164 16.3332422,16.592524 L16.3332422,19.8092416 C16.3332422,19.928964 16.3683333,20.0391031 16.4011003,20.148131 L2.36605469,20.148131 L6.50179687,2.3703275 Z M2.33328776,29.6296725 L32.6667122,29.6296725 L32.6667122,22.5184585 L2.33328776,22.5184585 L2.33328776,29.6296725 Z" id="Fill-2"></path>
            </g>
        </g>
    </g>
</svg>