<?xml version="1.0" encoding="UTF-8"?>
<svg width="15px" height="19px" viewBox="0 0 15 19" version="1.1" xmlns="http://www.w3.org/2000/svg" xmlns:xlink="http://www.w3.org/1999/xlink">
    <!-- Generator: Sketch 51.1 (57501) - http://www.bohemiancoding.com/sketch -->
    <title>刷新</title>
    <desc>Created with Sketch.</desc>
    <defs></defs>
    <g id="TRONLink" stroke="none" stroke-width="1" fill="none" fill-rule="evenodd">
        <g id="6.1首页-账户-方案二" transform="translate(-297.000000, -19.000000)">
            <g id="导航" transform="translate(18.000000, 19.000000)">
                <g id="刷新" transform="translate(279.000000, 0.000000)">
                    <path d="M1.07334717,5.63154632 L2.60203524,6.9954558 C2.21715332,7.74663518 2,8.59795815 2,9.5 C2,12.5375661 4.46243388,15 7.5,15 C8.62572046,15 9.67244997,14.6617995 10.5441256,14.0814615 L12.0726878,15.4452587 C10.8069811,16.4202012 9.2212002,17 7.5,17 C3.35786438,17 0,13.6421356 0,9.5 C0,8.08474095 0.392000302,6.76103848 1.07334717,5.63154632 Z M3.49206188,3.15958233 C4.6514289,2.42518051 6.02606134,2 7.5,2 C11.6421356,2 15,5.35786438 15,9.5 C15,10.5386746 14.7888585,11.5280345 14.407155,12.4275002 L12.7798152,11.0457391 C12.9231356,10.5553843 13,10.0366684 13,9.5 C13,6.46243388 10.5375661,4 7.5,4 C6.6469631,4 5.83928398,4.19419978 5.11876182,4.54080018 L3.49206188,3.15958233 Z" id="Combined-Shape" fill="#4E5383"></path>
                    <g transform="translate(2.000000, 0.000000)" fill="#4E5283" id="Path-3">
                        <polygon transform="translate(2.562219, 3.663432) rotate(-13.000000) translate(-2.562219, -3.663432) " points="4.42299802 0.33323134 0.701440405 3.60288466 4.42299802 6.99363173"></polygon>
                        <polygon transform="translate(9.054420, 14.799136) scale(-1, 1) rotate(24.000000) translate(-9.054420, -14.799136) " points="10.9151993 11.468936 7.19364167 14.7385893 10.9151993 18.1293364"></polygon>
                    </g>
                </g>
            </g>
        </g>
    </g>
</svg>