<?xml version="1.0" encoding="UTF-8"?>
<svg width="12px" height="12px" viewBox="0 0 12 13" version="1.1" xmlns="http://www.w3.org/2000/svg" xmlns:xlink="http://www.w3.org/1999/xlink">
    <!-- Generator: Sketch 51.1 (57501) - http://www.bohemiancoding.com/sketch -->
    <title>Group 6</title>
    <desc>Created with Sketch.</desc>
    <defs></defs>
    <g id="方案1" stroke="none" stroke-width="1" fill="none" fill-rule="evenodd">
        <g id="6.2首页-账户-方案二" transform="translate(-232.000000, -213.000000)" fill="#FFFFFF">
            <g id="更多" transform="translate(224.000000, 93.000000)">
                <g id="Group-4-Copy" transform="translate(8.000000, 118.000000)">
                    <g id="Group-6" transform="translate(0.000000, 2.000000)">
                        <path d="M3.59824305,0.91443278 L8.3959063,0.91443278 L8.3959063,0.0177469985 L3.59824305,0.0177469985 L3.59824305,0.91443278 Z M0,3.48441367 L11.9941669,3.48441367 L11.9941669,2.617747 L0,2.617747 L0,3.48441367 Z" id="Fill-1"></path>
                        <path d="M6.96313477,9.71968824 L7.79622255,9.71968824 L7.79622255,5.47508228 L6.96313477,5.47508228 L6.96313477,9.71968824 Z M4.19796193,9.71968824 L5.05510479,9.71968824 L5.05510479,5.47508228 L4.19796193,5.47508228 L4.19796193,9.71968824 Z" id="Fill-2"></path>
                        <polygon id="Fill-3" points="9.27947126 11.8700643 2.64823676 11.8700643 1.87136887 3.11427975 1.8590653 2.98899426 0.899539678 3.11022101 1.8590653 12.7515666 10.1350243 12.7515666 11.0945499 3.11022101 10.1695092 2.98899426"></polygon>
                    </g>
                </g>
            </g>
        </g>
    </g>
</svg>