<?xml version="1.0" encoding="UTF-8"?>
<svg width="18px" height="18px" viewBox="0 0 18 18" version="1.1" xmlns="http://www.w3.org/2000/svg" xmlns:xlink="http://www.w3.org/1999/xlink">
    <!-- Generator: Sketch 51.1 (57501) - http://www.bohemiancoding.com/sketch -->
    <title>设置</title>
    <desc>Created with Sketch.</desc>
    <defs></defs>
    <g id="TRONLink" stroke="none" stroke-width="1" fill="none" fill-rule="evenodd">
        <g id="6.1首页-账户-方案二" transform="translate(-324.000000, -20.000000)" fill="#4E5383">
            <g id="导航" transform="translate(18.000000, 19.000000)">
                <g id="设置" transform="translate(306.000000, 1.000000)">
                    <path d="M16.7317909,8.99970121 C16.7317909,8.36531892 17.0489926,7.8498833 17.5644453,7.49304326 C17.9212972,7.2551499 18.079898,6.81901208 17.9609474,6.38287425 C17.7626963,5.70884306 17.4851449,5.07446077 17.1679432,4.47972737 C16.9696921,4.12288733 16.5335398,3.88499397 16.0973875,4.00394065 C15.5026344,4.12288733 14.9078812,3.96429176 14.4717289,3.52815393 C14.0355766,3.0920161 13.8769758,2.4972827 13.9959264,1.9025493 C14.0752268,1.50606037 13.8769758,1.06992254 13.5201239,0.832029183 C12.9253708,0.475189143 12.2513172,0.237295783 11.6169138,0.039051316 C11.2204117,-0.079895364 10.7446092,0.0787002094 10.506708,0.435540249 C10.1895063,0.950975863 9.63440335,1.26816701 9,1.26816701 C8.36559665,1.26816701 7.85014392,0.950975863 7.49329203,0.435540249 C7.25539077,0.0787002094 6.81923847,-0.079895364 6.38308616,0.039051316 C5.7090326,0.237295783 5.07462924,0.514838036 4.4798761,0.832029183 C4.12302421,1.03027365 3.88512295,1.46641148 4.00407358,1.9025493 C4.12302421,2.4972827 3.96442337,3.131665 3.52827106,3.52815393 C3.09211876,3.96429176 2.49736561,4.12288733 1.90261247,4.00394065 C1.50611037,3.92464286 1.06995806,4.12288733 0.832056806,4.47972737 C0.475204919,5.07446077 0.237303661,5.74849196 0.0390526125,6.38287425 C-0.0798980165,6.77936318 0.0787028222,7.2551499 0.435554709,7.49304326 C0.951007435,7.81023441 1.26820911,8.36531892 1.26820911,8.99970121 C1.26820911,9.6340835 0.951007435,10.1495191 0.435554709,10.5063592 C0.0787028222,10.7442525 -0.0798980165,11.1803903 0.0390526125,11.6165282 C0.237303661,12.2905594 0.514855129,12.9249417 0.832056806,13.5196751 C1.03030785,13.8765151 1.46646016,14.0747596 1.90261247,13.9954618 C2.49736561,13.8765151 3.13176897,14.0351107 3.52827106,14.4712485 C3.96442337,14.9073863 4.12302421,15.5021197 4.00407358,16.0968531 C3.92477316,16.4933421 4.12302421,16.9294799 4.4798761,17.1673732 C5.07462924,17.5242133 5.74868281,17.7621066 6.38308616,17.9603511 C6.77958826,18.0792978 7.25539077,17.9207022 7.49329203,17.5638622 C7.81049371,17.0484266 8.36559665,16.7312354 9,16.7312354 C9.63440335,16.7312354 10.1498561,17.0484266 10.506708,17.5638622 C10.704959,17.8414044 11.0221607,18 11.3393624,18 C11.4186628,18 11.5376134,18 11.6169138,17.9603511 C12.2909674,17.7621066 12.9253708,17.4845644 13.5201239,17.1673732 C13.8769758,16.9691288 14.114877,16.5329909 13.9959264,16.0968531 C13.8769758,15.5021197 14.0355766,14.8677374 14.4717289,14.4712485 C14.9078812,14.0351107 15.5026344,13.8765151 16.0973875,13.9954618 C16.4938896,14.0747596 16.9300419,13.8765151 17.1679432,13.5196751 C17.5247951,12.9249417 17.7626963,12.2509105 17.9609474,11.6165282 C18.079898,11.1803903 17.9212972,10.7442525 17.5644453,10.5063592 C17.0489926,10.189168 16.7317909,9.6340835 16.7317909,8.99970121 Z M15.441794,12.5051424 C14.6113052,12.3667321 13.7808164,12.6435526 13.1925536,13.2317959 C12.6042907,13.8200393 12.3274611,14.6505005 12.4658759,15.4809617 C12.0852352,15.688577 11.6699908,15.8615898 11.2547464,16 C10.7702946,15.3425515 10.0090132,14.9273209 9.14392068,14.9273209 C8.31343188,14.9273209 7.55215049,15.307949 7.03309499,16 C6.61785059,15.8615898 6.2026062,15.688577 5.8219655,15.4809617 C5.9603803,14.6505005 5.6835507,13.8200393 5.0952878,13.2317959 C4.50702491,12.6435526 3.67653611,12.3667321 2.84604732,12.5051424 C2.63842512,12.1245143 2.46540662,11.7092837 2.32699182,11.2940531 C2.98446212,10.8096174 3.39970651,10.0483612 3.39970651,9.18329746 C3.39970651,8.35283623 3.01906582,7.59158011 2.32699182,7.07254185 C2.46540662,6.65731123 2.63842512,6.24208062 2.84604732,5.86145256 C3.67653611,5.99986277 4.50702491,5.72304236 5.0952878,5.13479899 C5.6835507,4.54655562 5.9603803,3.7160944 5.8219655,2.88563318 C6.2026062,2.67801787 6.61785059,2.50500512 7.03309499,2.36659491 C7.51754679,3.02404338 8.27882818,3.43927399 9.14392068,3.43927399 C9.97440947,3.43927399 10.7356909,3.05864593 11.2547464,2.36659491 C11.6699908,2.50500512 12.0852352,2.67801787 12.4658759,2.88563318 C12.3274611,3.7160944 12.6042907,4.54655562 13.1925536,5.13479899 C13.7808164,5.72304236 14.6113052,5.99986277 15.441794,5.86145256 C15.6494162,6.24208062 15.8224347,6.65731123 15.9608495,7.07254185 C15.3033792,7.55697756 14.8881348,8.31823368 14.8881348,9.18329746 C14.8881348,10.0137587 15.2687755,10.7750148 15.9608495,11.2940531 C15.8224347,11.7092837 15.6494162,12.1245143 15.441794,12.5051424 Z" id="Shape" fill-rule="nonzero"></path>
                    <path d="M11.6691176,6.66176471 C12.8602941,8.16176471 12.6397059,10.3455882 11.1397059,11.5147059 C9.66176471,12.7058824 7.47794118,12.4411765 6.28676471,10.9411765 C5.09558824,9.44117647 5.33823529,7.27941176 6.81617647,6.08823529 C8.29411765,4.89705882 10.4779412,5.16176471 11.6691176,6.66176471 Z M7.30147059,10.1470588 C8.02941176,11.0955882 9.39705882,11.25 10.3455882,10.5 C11.2720588,9.77205882 11.4264706,8.40441176 10.6764706,7.45588235 C9.92647059,6.52941176 8.55882353,6.375 7.63235294,7.10294118 C6.70588235,7.83088235 6.55147059,9.19852941 7.30147059,10.1470588 Z" id="Combined-Shape"></path>
                </g>
            </g>
        </g>
    </g>
</svg>