<?xml version="1.0" encoding="UTF-8"?>
<svg width="17px" height="17px" viewBox="0 0 17 17" version="1.1" xmlns="http://www.w3.org/2000/svg" xmlns:xlink="http://www.w3.org/1999/xlink">
    <!-- Generator: Sketch 53.2 (72643) - https://sketchapp.com -->
    <title>交易所</title>
    <desc>Created with Sketch.</desc>
    <g id="V3.0" stroke="none" stroke-width="1" fill="none" fill-rule="evenodd">
        <g id="首页2" transform="translate(-200.000000, -21.000000)" fill="#4B517E">
            <g id="导航" transform="translate(147.000000, 20.000000)">
                <g id="交易所" transform="translate(53.000000, 1.000000)">
                    <g id="分组">
                        <path d="M1.99237061,10.0350342 C1.07226563,4.83111572 4.96009589,2.07812609 8.5152875,2.07812609 C13.1699667,2.07812609 15.9445801,5.71539307 15.0714722,10.0350342 L1.99237061,10.0350342 Z M5.91304348e-05,8.5391 C5.91304348e-05,13.2118826 3.78810261,16.9999261 8.46088522,16.9999261 C13.1336678,16.9999261 16.9218591,13.2118826 16.9218591,8.5391 C16.9218591,3.86631739 13.1336678,0.078126087 8.46088522,0.078126087 C3.78810261,0.078126087 5.91304348e-05,3.86631739 5.91304348e-05,8.5391 Z" id="Fill-1"></path>
                    </g>
                    <g id="分组-2" transform="translate(4.000000, 4.000000)">
                        <polygon id="Fill-3" points="0.000295652174 7.60964348 2.10696522 7.60964348 2.10666957 3.60964348 0 3.60964348"></polygon>
                        <polygon id="Fill-5" points="3.40029565 8 5.50696522 8 5.50666957 2 3.4 2"></polygon>
                        <polygon id="Fill-7" points="7.00029565 7.60964348 9.10696522 7.60964348 9.10666957 0.609643478 7 0.609643478"></polygon>
                    </g>
                </g>
            </g>
        </g>
    </g>
</svg>