<?xml version="1.0" encoding="UTF-8"?>
<svg width="12px" height="14px" viewBox="0 0 12 14" version="1.1" xmlns="http://www.w3.org/2000/svg" xmlns:xlink="http://www.w3.org/1999/xlink">
    <!-- Generator: Sketch 51.1 (57501) - http://www.bohemiancoding.com/sketch -->
    <title>Shape</title>
    <desc>Created with Sketch.</desc>
    <defs></defs>
    <g id="TRONLink" stroke="none" stroke-width="1" fill="none" fill-rule="evenodd">
        <g id="6.2首页-账户-方案二" transform="translate(-232.000000, -100.000000)" fill="#FFFFFF" fill-rule="nonzero">
            <g id="更多" transform="translate(224.000000, 93.000000)">
                <g id="投票" transform="translate(8.000000, 5.000000)">
                    <g id="雪花" transform="translate(0.000000, 2.000000)">
                        <polygon id="Shape" points="10.1060016 8.62353858 12 9.71784879 11.6102884 10.3928293 9.71628995 9.2985191 10.1901793 11.0646921 9.43725643 11.2657833 8.76227592 8.74668745 6.38971161 7.37802027 6.38971161 10.1169135 8.23382697 11.9610288 7.68355417 12.5113016 6.38971161 11.2174591 6.38971161 13.4060795 5.61028839 13.4060795 5.61028839 11.2190179 4.31644583 12.5128605 3.76461419 11.9610288 5.61028839 10.1169135 5.61028839 7.37802027 3.24707716 8.74201091 2.57209665 11.2611068 1.81917381 11.0600156 2.29306313 9.29384256 0.389711613 10.3928293 0 9.71784879 1.90335152 8.61886204 0.137178488 8.14497272 0.33826968 7.39204988 2.85736555 8.0670304 5.22057677 6.70303975 2.85736555 5.3390491 0.33826968 6.01402962 0.137178488 5.26110678 1.90335152 4.78721746 8.86101619e-16 3.68823071 0.389711613 3.01325019 2.29306313 4.11223694 1.81917381 2.34606391 2.57209665 2.14497272 3.24707716 4.66406859 5.61028839 6.02805924 5.61028839 3.30007794 3.76617303 1.45596259 4.31644583 0.904130943 5.61028839 2.1979735 5.61028839 0 6.38971161 0 6.38971161 2.1979735 7.68355417 0.904130943 8.23538581 1.45596259 6.38971161 3.30007794 6.38971161 6.02805924 8.76071707 4.65939205 9.43569758 2.14029618 10.1886204 2.34138737 9.7147311 4.10756041 11.6087295 3.01325019 11.9984412 3.68823071 10.1044427 4.78254092 11.8706157 5.25643024 11.6695246 6.00935308 9.15042868 5.33437256 6.77942323 6.70303975 9.15042868 8.07170694 11.6695246 7.39672642 11.8706157 8.14964926"></polygon>
                    </g>
                </g>
            </g>
        </g>
    </g>
</svg>