<?xml version="1.0" encoding="UTF-8"?>
<svg width="36px" height="36px" viewBox="0 0 36 36" version="1.1" xmlns="http://www.w3.org/2000/svg" xmlns:xlink="http://www.w3.org/1999/xlink">
    <!-- Generator: Sketch 53.2 (72643) - https://sketchapp.com -->
    <title>分组 5</title>
    <desc>Created with Sketch.</desc>
    <defs>
        <circle id="path-1" cx="10" cy="10" r="10"></circle>
        <filter x="-62.5%" y="-57.5%" width="225.0%" height="225.0%" filterUnits="objectBoundingBox" id="filter-2">
            <feOffset dx="0" dy="1" in="SourceAlpha" result="shadowOffsetOuter1"></feOffset>
            <feGaussianBlur stdDeviation="4" in="shadowOffsetOuter1" result="shadowBlurOuter1"></feGaussianBlur>
            <feColorMatrix values="0 0 0 0 0.463784481   0 0 0 0 0.672114158   0 0 0 0 0.381113974  0 0 0 0.5 0" type="matrix" in="shadowBlurOuter1"></feColorMatrix>
        </filter>
    </defs>
    <g id="V2.6" stroke="none" stroke-width="1" fill="none" fill-rule="evenodd">
        <g id="9.1设置--切换节点-copy-2" transform="translate(-34.000000, -250.000000)">
            <g id="分组-3" transform="translate(42.000000, 257.000000)">
                <g id="分组-5">
                    <g id="椭圆形">
                        <use fill="black" fill-opacity="1" filter="url(#filter-2)" xlink:href="#path-1"></use>
                        <use fill="#76AB61" fill-rule="evenodd" xlink:href="#path-1"></use>
                    </g>
                    <path d="M13.9333333,4.89333333 C14.1733333,5.11555556 14.3644444,5.3 14.5066667,5.44666667 C14.6488889,5.59333333 14.7577778,5.71777778 14.8333333,5.82 C14.9088889,5.92222222 14.9555556,6.00888889 14.9733333,6.08 C14.9911111,6.15111111 15,6.21333333 15,6.26666667 L15,6.48 L13.0266667,6.48 C12.9377778,6.48 12.86,6.44666667 12.7933333,6.38 C12.7266667,6.31333333 12.6711111,6.23555556 12.6266667,6.14666667 C12.5822222,6.05777778 12.5488889,5.96666667 12.5266667,5.87333333 C12.5044444,5.78 12.4933333,5.70666667 12.4933333,5.65333333 L12.4933333,4 L12.5333333,4 C12.6044444,4 12.6777778,4.01111111 12.7533333,4.03333333 C12.8288889,4.05555556 12.9155556,4.09777778 13.0133333,4.16 C13.1111111,4.22222222 13.2333333,4.31111111 13.38,4.42666667 C13.5266667,4.54222222 13.7111111,4.69777778 13.9333333,4.89333333 Z M11.6533333,5.66666667 C11.6533333,5.84444444 11.68,6.02888889 11.7333333,6.22 C11.7866667,6.41111111 11.8711111,6.58888889 11.9866667,6.75333333 C12.1022222,6.91777778 12.2488889,7.05333333 12.4266667,7.16 C12.6044444,7.26666667 12.8133333,7.32 13.0533333,7.32 L15,7.32 L15,14.84 C15,15.0977778 14.9488889,15.3288889 14.8466667,15.5333333 C14.7444444,15.7377778 14.6088889,15.9111111 14.44,16.0533333 C14.2711111,16.1955556 14.0844444,16.3066667 13.88,16.3866667 C13.6755556,16.4666667 13.4755556,16.5066667 13.28,16.5066667 L6.72,16.5066667 C6.55111111,16.5066667 6.36666667,16.4577778 6.16666667,16.36 C5.96666667,16.2622222 5.78,16.1333333 5.60666667,15.9733333 C5.43333333,15.8133333 5.28888889,15.6311111 5.17333333,15.4266667 C5.05777778,15.2222222 5,15.0088889 5,14.7866667 L5,5.72 C5,5.53333333 5.04222222,5.34 5.12666667,5.14 C5.21111111,4.94 5.32666667,4.75555556 5.47333333,4.58666667 C5.62,4.41777778 5.78666667,4.27777778 5.97333333,4.16666667 C6.16,4.05555556 6.35555556,4 6.56,4 L11.6533333,4 L11.6533333,5.66666667 Z M12.4933333,13.9866667 C12.7244444,13.9866667 12.92,13.9044444 13.08,13.74 C13.24,13.5755556 13.32,13.3777778 13.32,13.1466667 C13.32,12.9155556 13.24,12.72 13.08,12.56 C12.92,12.4 12.7244444,12.32 12.4933333,12.32 L7.49333333,12.32 C7.26222222,12.32 7.06666667,12.4 6.90666667,12.56 C6.74666667,12.72 6.66666667,12.9155556 6.66666667,13.1466667 C6.66666667,13.3777778 6.74666667,13.5755556 6.90666667,13.74 C7.06666667,13.9044444 7.26222222,13.9866667 7.49333333,13.9866667 L12.4933333,13.9866667 Z M13.32,9.82666667 C13.32,9.59555556 13.24,9.39777778 13.08,9.23333333 C12.92,9.06888889 12.7244444,8.98666667 12.4933333,8.98666667 L7.49333333,8.98666667 C7.26222222,8.98666667 7.06666667,9.06888889 6.90666667,9.23333333 C6.74666667,9.39777778 6.66666667,9.59555556 6.66666667,9.82666667 C6.66666667,10.0577778 6.74666667,10.2533333 6.90666667,10.4133333 C7.06666667,10.5733333 7.26222222,10.6533333 7.49333333,10.6533333 L12.4933333,10.6533333 C12.7244444,10.6533333 12.92,10.5733333 13.08,10.4133333 C13.24,10.2533333 13.32,10.0577778 13.32,9.82666667 Z" id="形状" fill="#FFFFFF" fill-rule="nonzero"></path>
                </g>
            </g>
        </g>
    </g>
</svg>