<?xml version="1.0" encoding="UTF-8"?>
<svg width="18px" height="19px" viewBox="0 0 18 19" version="1.1" xmlns="http://www.w3.org/2000/svg" xmlns:xlink="http://www.w3.org/1999/xlink">
    <!-- Generator: Sketch 51.1 (57501) - http://www.bohemiancoding.com/sketch -->
    <title>节点</title>
    <desc>Created with Sketch.</desc>
    <defs></defs>
    <g id="TRONLink" stroke="none" stroke-width="1" fill="none" fill-rule="evenodd">
        <g id="9.1设置-1" transform="translate(-20.000000, -73.000000)" fill-rule="nonzero">
            <g id="自定义节点" transform="translate(20.000000, 72.000000)">
                <g id="节点" transform="translate(0.000000, 1.000000)">
                    <path d="M8,3 L10,3 L10,8 L8,8 L8,3 Z M15.330127,12.5 L14.330127,14.2320508 L10,11.7320508 L11,10 L15.330127,12.5 Z M3,12.5 L7.33012702,10 L8.33012702,11.7320508 L4,14.2320508 L3,12.5 Z" id="Combined-Shape" fill="#A8A7AF"></path>
                    <path d="M2.27495074,15.9812558 C2.18506754,15.9936142 2.09327952,16 2,16 C0.8954305,16 0,15.1045695 0,14 C0,13.5314519 0.161121775,13.1005357 0.430982109,12.7596348 C0.151138914,11.8900133 0,10.9626569 0,10 C0,5.65549938 3.07831461,2.02997765 7.17277583,1.18560283 C7.48464253,0.486939545 8.18545585,0 9,0 C9.81454415,0 10.5153575,0.486939545 10.8272242,1.18560283 C14.9216854,2.02997765 18,5.65549938 18,10 C18,10.9626569 17.8488611,11.8900133 17.5690179,12.7596348 C17.8388782,13.1005357 18,13.5314519 18,14 C18,15.1045695 17.1045695,16 16,16 C15.9067205,16 15.8149325,15.9936142 15.7250493,15.9812558 C14.0765878,17.8333804 11.6745332,19 9,19 C6.32546683,19 3.92341225,17.8333804 2.27495074,15.9812558 Z M3.85571354,14.7472946 C5.13465037,16.132494 6.96601674,17 9,17 C11.0339833,17 12.8653496,16.132494 14.1442865,14.7472946 C14.0512257,14.5164212 14,14.2641928 14,14 C14,12.9961459 14.7395831,12.1650307 15.7035904,12.0218133 C15.8963834,11.3817032 16,10.7029521 16,10 C16,6.68822829 13.7001552,3.91361412 10.6104573,3.1861492 C10.2462633,3.67979751 9.6605253,4 9,4 C8.3394747,4 7.75373669,3.67979751 7.38954266,3.1861492 C4.29984479,3.91361412 2,6.68822829 2,10 C2,10.7029521 2.10361657,11.3817032 2.29640959,12.0218133 C3.26041686,12.1650307 4,12.9961459 4,14 C4,14.2641928 3.94877432,14.5164212 3.85571354,14.7472946 Z M9,13 C7.34314575,13 6,11.6568542 6,10 C6,8.34314575 7.34314575,7 9,7 C10.6568542,7 12,8.34314575 12,10 C12,11.6568542 10.6568542,13 9,13 Z M9,11 C9.55228475,11 10,10.5522847 10,10 C10,9.44771525 9.55228475,9 9,9 C8.44771525,9 8,9.44771525 8,10 C8,10.5522847 8.44771525,11 9,11 Z" id="Combined-Shape" fill="#505160"></path>
                </g>
            </g>
        </g>
    </g>
</svg>