<?xml version="1.0" encoding="UTF-8"?>
<svg width="14px" height="14px" viewBox="0 0 14 14" version="1.1" xmlns="http://www.w3.org/2000/svg" xmlns:xlink="http://www.w3.org/1999/xlink">
    <!-- Generator: Sketch 51.1 (57501) - http://www.bohemiancoding.com/sketch -->
    <title>中国</title>
    <desc>Created with Sketch.</desc>
    <defs>
        <circle id="path-1" cx="7" cy="7" r="7"></circle>
    </defs>
    <g id="TRONLink" stroke="none" stroke-width="1" fill="none" fill-rule="evenodd">
        <g id="3.1设置密码" transform="translate(-273.000000, -76.000000)">
            <g id="语言" transform="translate(267.000000, 19.000000)">
                <g id="Group-3" transform="translate(0.000000, 26.000000)">
                    <g id="中国" transform="translate(6.000000, 31.000000)">
                        <g id="Group-5">
                            <mask id="mask-2" fill="white">
                                <use xlink:href="#path-1"></use>
                            </mask>
                            <use id="Mask" fill="#D8D8D8" xlink:href="#path-1"></use>
                            <g id="中国" mask="url(#mask-2)" fill-rule="nonzero">
                                <g transform="translate(-2.875000, 0.000000)">
                                    <path d="M2,13.9811411 L23,13.9811411 L23,0 L2,0 L2,13.9811411 Z M2.08407402,13.8952948 L22.9138032,13.8952948 L22.9138032,0.0858463276 L2.08407402,0.0858463276 L2.08407402,13.8952948 Z M22.965487,13.8952948 L22.965487,14 L22.965487,13.8952948 Z" id="Fill-1" fill="#353636"></path>
                                    <polygon id="Fill-2" fill="#D64B24" points="0 14 21 14 21 0 0 0"></polygon>
                                    <path d="M11.0249979,8.75 L10.9750412,9.41546192 L11.625,9.66192113 L10.9500007,9.8345136 L10.9000192,10.5 L10.5499993,9.93304341 L9.875,10.1056359 L10.324983,9.58795642 L9.950022,9.02112228 L10.5999808,9.26755701 L11.0249979,8.75 Z M12.4876439,7 L12.7095136,7.66914096 L13.375,7.66914096 L12.8327309,8.08085904 L13.029913,8.75 L12.4876439,8.33825636 L11.9453994,8.75 L12.1672445,8.08085904 L11.625,7.66914096 L12.2904864,7.66914096 L12.4876439,7 Z M13.1999478,4.55004968 L12.9000217,5.15001774 L13.375,5.62498935 L12.7000294,5.52493257 L12.4000039,6.125 L12.2999706,5.44993967 L11.625,5.34998226 L12.2249518,5.04996097 L12.1250178,4.375 L12.5999961,4.84999645 L13.1999478,4.55004968 Z M11.0162879,2.625 L10.9909092,3.30557299 L11.625,3.54857958 L10.9402021,3.71877113 L10.9148989,4.375 L10.534394,3.81595444 L9.875,3.96180186 L10.3061112,3.45142042 L9.95101025,2.89235072 L10.5851011,3.15972557 L11.0162879,2.625 Z M6.80243329,3.5 L7.32658308,5.17775582 L9,5.17775582 L7.6492385,6.19713867 L8.15319479,7.875 L6.80243329,6.83428196 L5.45161171,7.875 L5.97584162,6.19713867 L4.625,5.17775582 L6.29839688,5.17775582 L6.80243329,3.5 Z" id="Fill-3" fill="#FBDC00"></path>
                                </g>
                            </g>
                        </g>
                    </g>
                </g>
            </g>
        </g>
    </g>
</svg>