<?xml version="1.0" encoding="UTF-8"?>
<svg width="29px" height="27px" viewBox="0 0 29 27" version="1.1" xmlns="http://www.w3.org/2000/svg" xmlns:xlink="http://www.w3.org/1999/xlink">
    <!-- Generator: Sketch 53.2 (72643) - https://sketchapp.com -->
    <title>上传</title>
    <desc>Created with Sketch.</desc>
    <g id="V2.6" stroke="none" stroke-width="1" fill="none" fill-rule="evenodd">
        <g id="9.1设置--切换节点-copy" transform="translate(-165.000000, -133.000000)" fill="#FFFFFF" fill-rule="nonzero">
            <g id="分组-3" transform="translate(25.000000, 108.000000)">
                <g id="上传" transform="translate(140.000000, 24.000000)">
                    <polygon id="路径" fill-opacity="0.2" points="6.23530983 16.0928704 21.8506944 16.0928704 21.8506944 23.0928704 6.23530983 23.0928704"></polygon>
                    <path d="M28.2951389,27.8736111 C9.67785494,27.8736111 0.369212963,27.8736111 0.369212963,27.8736111 L0.369212963,10.7002778 C0.369212963,10.7002778 3.50965876,10.7002778 9.79055036,10.7002778 L9.79055036,12.4667969 L2.2635498,12.4667969 L2.2635498,25.9990234 L26.2967529,25.9990234 L26.2967529,12.4667969 L18.870045,12.4667969 L18.870045,10.7002778 C24.7853025,10.7002778 27.9270005,10.7002778 28.2951389,10.7002778 L28.2951389,27.8736111 Z" id="路径"></path>
                    <path d="M14.4908648,0.945068359 L9.59130859,6.56237793 C9.59130859,6.56237793 11.2754228,8.43552847 11.2754228,8.43552847 L13.3252393,6.10454078 L13.3252393,18.7002946 C13.5641443,18.7002946 14.2916687,18.7108409 15.5078125,18.7319336 L15.5078125,6.10454078 L17.3889291,8.43552847 C17.3889291,8.43552847 19.2091064,6.80700684 19.2091064,6.80700684 C19.2091064,6.80700684 14.6505168,1.0281208 14.4908648,0.945068359 Z" id="路径"></path>
                </g>
            </g>
        </g>
    </g>
</svg>