<?xml version="1.0" encoding="UTF-8"?>
<svg width="13px" height="15px" viewBox="0 0 13 15" version="1.1" xmlns="http://www.w3.org/2000/svg" xmlns:xlink="http://www.w3.org/1999/xlink">
    <!-- Generator: Sketch 53.2 (72643) - https://sketchapp.com -->
    <title>162火焰、加热</title>
    <desc>Created with Sketch.</desc>
    <g id="V2.3" stroke="none" stroke-width="1" fill="none" fill-rule="evenodd">
        <g id="DAPP-推荐" transform="translate(-131.000000, -127.000000)" fill="#DB705C" fill-rule="nonzero">
            <g id="list1-copy" transform="translate(14.000000, 111.000000)">
                <g id="Group" transform="translate(19.000000, 12.000000)">
                    <g id="162火焰、加热" transform="translate(0.000000, 4.000000)">
                        <path d="M107.828762,2.78516367 C108.182873,3.57613674 108.236073,4.88325327 107.502913,5.51167467 C106.312568,0.899899453 103.336706,0 103.336706,0 C103.690817,2.34443079 102.093161,4.91006591 100.523768,6.84392805 C100.470568,5.91721595 100.414044,5.29047034 99.9019957,4.3352698 C99.7922712,6.05295498 98.4955267,7.41704837 98.1164783,9.13473355 C97.6576303,11.5076528 98.4955267,13.1717127 101.685851,15 C100.68503,12.9019104 101.227003,11.7003687 102.011699,10.6111049 C102.849596,9.35761367 103.069045,8.15607195 103.069045,8.15607195 C103.069045,8.15607195 103.744017,9.00067032 103.476355,10.3362753 C104.610176,9.02915875 104.829625,6.92604178 104.668363,6.16355714 C107.263514,7.99184449 108.425597,12.0288236 106.912728,14.9463747 C114.915969,10.3379511 108.882782,3.49234722 107.828762,2.78516367 Z" id="Shape"></path>
                    </g>
                </g>
            </g>
        </g>
    </g>
</svg>