<?xml version="1.0" encoding="UTF-8"?>
<svg width="12px" height="13px" viewBox="0 0 12 13" version="1.1" xmlns="http://www.w3.org/2000/svg" xmlns:xlink="http://www.w3.org/1999/xlink">
    <!-- Generator: Sketch 51.1 (57501) - http://www.bohemiancoding.com/sketch -->
    <title>Group 8</title>
    <desc>Created with Sketch.</desc>
    <defs></defs>
    <g id="方案1" stroke="none" stroke-width="1" fill="none" fill-rule="evenodd">
        <g id="6.2首页-账户-方案二" transform="translate(-232.000000, -130.000000)" fill="#FFFFFF">
            <g id="更多" transform="translate(224.000000, 93.000000)">
                <g id="Group-5" transform="translate(8.000000, 35.000000)">
                    <g id="Group-8" transform="translate(0.000000, 2.000000)">
                        <path d="M0,3 L9,3 L9,13 L0,13 L0,3 Z M1,4 L1,12 L8,12 L8,4 L1,4 Z" id="Rectangle-8"></path>
                        <rect id="Rectangle-11-Copy-2" x="2" y="6" width="5" height="1"></rect>
                        <rect id="Rectangle-11-Copy-8" x="2" y="9" width="3" height="1"></rect>
                        <path d="M10,10 L10,9 L11,9 L11,1 L3,1 L3,2 L2,2 L2,0 L12,0 L12,10 L10,10 Z" id="Combined-Shape"></path>
                    </g>
                </g>
            </g>
        </g>
    </g>
</svg>