<?xml version="1.0" encoding="UTF-8"?>
<svg width="12px" height="12px" viewBox="0 0 12 12" version="1.1" xmlns="http://www.w3.org/2000/svg" xmlns:xlink="http://www.w3.org/1999/xlink">
    <!-- Generator: Sketch 53.2 (72643) - https://sketchapp.com -->
    <title>分组</title>
    <desc>Created with Sketch.</desc>
    <g id="V2.4" stroke="none" stroke-width="1" fill="none" fill-rule="evenodd">
        <g id="1首页-资产" transform="translate(-232.000000, -101.000000)">
            <g id="更多" transform="translate(224.000000, 93.000000)">
                <g id="我的资产" transform="translate(8.000000, 5.000000)">
                    <g id="分组" transform="translate(0.000000, 3.000000)">
                        <path d="M12,2 L11,2 L11,1 L1,1 L1,11 L11,11 L11,10 L12,10 L12,12 L0,12 L0,0 L12,0 L12,2 Z" id="合并形状" fill="#FFFFFF"></path>
                        <path d="M7,3 L12,3 L12,9 L7,9 L7,3 Z M8,4 L8,8 L11,8 L11,4 L8,4 Z" id="合并形状" fill="#FFFFFF"></path>
                        <rect id="矩形" stroke="#FFFFFF" x="9.5" y="5.5" width="1" height="1"></rect>
                    </g>
                </g>
            </g>
        </g>
    </g>
</svg>