<?xml version="1.0" encoding="UTF-8"?>
<svg width="8px" height="9px" viewBox="0 0 8 9" version="1.1" xmlns="http://www.w3.org/2000/svg" xmlns:xlink="http://www.w3.org/1999/xlink">
    <!-- Generator: Sketch 53.2 (72643) - https://sketchapp.com -->
    <title>形状</title>
    <desc>Created with Sketch.</desc>
    <g id="移动端" stroke="none" stroke-width="1" fill="none" fill-rule="evenodd">
        <g id="1插件-首页" transform="translate(-67.000000, -456.000000)" fill="#E2AB58" fill-rule="nonzero">
            <g id="Group-10-Copy" transform="translate(14.000000, 424.000000)">
                <g id="tonken1">
                    <g id="分组" transform="translate(52.000000, 31.000000)">
                        <g id="上升" transform="translate(0.545455, 0.363636)">
                            <path d="M2.01779596,8.90909091 L0.566206207,8.90909091 C0.504792792,8.90909091 0.454545455,8.84938827 0.454545455,8.77641838 L0.454545455,6.38831299 C0.454545455,6.3153431 0.504792792,6.25564047 0.566206207,6.25564047 L2.01779596,6.25564047 C2.07920938,6.25564047 2.12945671,6.3153431 2.12945671,6.38831299 L2.12945671,8.77641838 C2.12945671,8.84938827 2.07920938,8.90909091 2.01779596,8.90909091 Z M4.69765397,8.77641838 L4.69765397,4.53089768 C4.69765397,4.45792779 4.64740664,4.39822516 4.58599322,4.39822516 L3.13440347,4.39822516 C3.07299005,4.39822516 3.02274271,4.45792779 3.02274271,4.53089768 L3.02274271,8.77641838 C3.02274271,8.84938827 3.07299005,8.90909091 3.13440347,8.90909091 L4.58599322,8.90909091 C4.64740664,8.90909091 4.69765397,8.84938827 4.69765397,8.77641838 Z M7.5236482,2.89359815 L6.45654494,0.714723347 C6.40542366,0.610243733 6.32165347,0.610243733 6.27053218,0.714723347 L5.20364372,2.89359815 C5.15252243,2.99807776 5.19430012,3.08356108 5.29665011,3.08356108 L5.66556111,3.08356108 L5.66556111,8.78244895 C5.66556111,8.85210203 5.71389006,8.90909091 5.77295878,8.90909091 L6.95433317,8.90909091 C7.01340189,8.90909091 7.06173084,8.85210203 7.06173084,8.78244895 L7.06173082,3.08356108 L7.43064182,3.08356108 C7.5328844,3.08356108 7.5747695,2.99807776 7.5236482,2.89359815 Z" id="形状"></path>
                        </g>
                    </g>
                </g>
            </g>
        </g>
    </g>
</svg>