<?xml version="1.0" encoding="UTF-8"?>
<svg width="12px" height="12px" viewBox="0 1 12 12" version="1.1" xmlns="http://www.w3.org/2000/svg" xmlns:xlink="http://www.w3.org/1999/xlink">
    <!-- Generator: Sketch 51.1 (57501) - http://www.bohemiancoding.com/sketch -->
    <title>8</title>
    <desc>Created with Sketch.</desc>
    <defs></defs>
    <g id="TRONLink" stroke="none" stroke-width="1" fill="none" fill-rule="evenodd">
        <g id="6.2首页-账户-方案二" transform="translate(-232.000000, -128.000000)" fill="#FFFFFF">
            <g id="更多" transform="translate(224.000000, 93.000000)">
                <g id="投票" transform="translate(8.000000, 33.000000)">
                    <g id="8" transform="translate(0.000000, 1.000000)">
                        <path d="M3,7 L3,8 L9,8 L9,7 L12,7 L12,14 L0,14 L0,7 L3,7 Z M1,8 L1,13 L11,13 L11,8 L1,8 Z" id="Rectangle-8"></path>
                        <g id="1" transform="translate(6.935492, 5.009641) rotate(-17.000000) translate(-6.935492, -5.009641) translate(2.935492, 1.009641)" fill-rule="nonzero">
                            <path d="M2.98400144,7.31280048 L1.42972407,7.31280048 C1.22521389,7.31280048 1.04115473,7.12874131 1.04115473,6.92423114 L1.04115473,5.36995377 C1.04115473,5.26769868 1.08205677,5.16544359 1.16386084,5.10409053 L5.04955426,1.21839712 C5.19271138,1.07523999 5.4381236,1.07523999 5.60173174,1.21839712 L7.15600911,2.77267448 C7.29916623,2.91583161 7.29916623,3.16124383 7.15600911,3.32485197 L3.27031569,7.21054539 C3.18851162,7.27189844 3.08625653,7.31280048 2.98400144,7.31280048 Z M1.81829341,6.53566179 L2.8203933,6.53566179 L6.31751737,3.03853772 L5.31541749,2.03643784 L1.81829341,5.53356191 L1.81829341,6.53566179 Z" id="Shape" transform="translate(4.152266, 4.211915) rotate(5.000000) translate(-4.152266, -4.211915) "></path>
                        </g>
                        <rect id="Rectangle-11-Copy-8" x="3" y="10" width="6" height="1"></rect>
                    </g>
                </g>
            </g>
        </g>
    </g>
</svg>