<?xml version="1.0" encoding="UTF-8"?>
<svg width="12px" height="11px" viewBox="0 0 12 11" version="1.1" xmlns="http://www.w3.org/2000/svg" xmlns:xlink="http://www.w3.org/1999/xlink">
    <!-- Generator: Sketch 51.1 (57501) - http://www.bohemiancoding.com/sketch -->
    <title>Fill 1</title>
    <desc>Created with Sketch.</desc>
    <defs></defs>
    <g id="TRONLink" stroke="none" stroke-width="1" fill="none" fill-rule="evenodd">
        <g id="6.3首页-账户" transform="translate(-133.000000, -102.000000)" fill="#FFFFFF">
            <g id="账户" transform="translate(0.000000, 58.000000)">
                <g id="Group-3" transform="translate(123.000000, 35.000000)">
                    <path d="M10.001626,19.7259549 C9.9987358,18.2545141 10.5215878,18.3244691 12.2144614,17.5157046 C12.7912897,17.2393646 14.6150813,16.4286449 14.6150813,16.4286449 C14.6150813,16.4286449 14.7070599,16.0151322 14.6150813,15.7038342 C14.1851452,15.4545535 13.7451324,14.3484898 13.691117,13.892003 C13.2912545,13.7108003 13.1722488,12.9420771 13.1371759,12.8048652 C13.104212,12.6777808 13.1731861,12.3093928 13.4412323,12.2882772 C13.3632751,12.0510792 13.321172,11.7978491 13.321172,11.5364464 C13.321172,11.4755633 13.3262103,11.415384 13.3312095,11.355322 C13.3262103,11.29526 13.321172,11.2352762 13.321172,11.1741975 C13.321172,9.77380659 14.5200173,9 15.9988211,9 C17.4776249,9 18.6763531,9.77271171 18.6763531,11.1741975 C18.6763531,11.2352762 18.671471,11.29526 18.6664327,11.355322 C18.6704165,11.415384 18.6763531,11.4755633 18.6763531,11.5364464 C18.6763531,11.7987093 18.6344062,12.0510792 18.556449,12.2882772 C18.8253544,12.3093928 18.8934302,12.6777808 18.8603492,12.8048652 C18.8253544,12.9420771 18.7063877,13.7108003 18.3065252,13.892003 C18.2524707,14.3484898 17.8135906,15.4545535 17.3825999,15.7038342 C17.2686325,16.0432471 17.3825999,16.4286449 17.3825999,16.4286449 C17.3825999,16.4286449 19.2063525,17.2393646 19.7832199,17.5157046 C21.4769918,18.3244691 21.9988674,18.2545141 21.9969145,19.7259549 C21.9988674,19.8881145 21.9988674,19.9512656 22,19.9841902 L10.001626,19.9841902 C10.0047115,19.9853242 9.99674391,20.1675436 10.001626,19.7259549" id="Fill-1"></path>
                </g>
            </g>
        </g>
    </g>
</svg>