<?xml version="1.0" encoding="UTF-8"?>
<svg width="12px" height="12px" viewBox="0 0 12 12" version="1.1" xmlns="http://www.w3.org/2000/svg" xmlns:xlink="http://www.w3.org/1999/xlink">
    <!-- Generator: Sketch 51.1 (57501) - http://www.bohemiancoding.com/sketch -->
    <title>Group 9</title>
    <desc>Created with Sketch.</desc>
    <defs>
        <polygon id="path-1" points="3.42857143 1.57142857 8.55883244 1.57142857 8.55883244 6.28373663 3.42857143 6.28373663"></polygon>
    </defs>
    <g id="方案1" stroke="none" stroke-width="1" fill="none" fill-rule="evenodd">
        <g id="6.2首页-账户-方案二" transform="translate(-232.000000, -186.000000)">
            <g id="更多" transform="translate(224.000000, 93.000000)">
                <g id="Group-4-Copy-2" transform="translate(8.000000, 90.000000)">
                    <g id="Group-9" transform="translate(0.000000, 3.000000)">
                        <path d="M0,0 L12,0 L12,12 L0,12 L0,0 Z M1,1 L1,11 L11,11 L11,1 L1,1 Z" id="Rectangle-8" fill="#FFFFFF"></path>
                        <mask id="mask-2" fill="white">
                            <use xlink:href="#path-1"></use>
                        </mask>
                        <g id="Clip-2"></g>
                        <path d="M3.42926828,6.16826639 C3.42802963,5.53764891 3.65210907,5.56762963 4.3776263,5.22101625 C4.62483846,5.10258485 5.40646343,4.75513355 5.40646343,4.75513355 C5.40646343,4.75513355 5.4458828,4.57791378 5.40646343,4.44450039 C5.22220508,4.33766578 5.03362819,3.86363851 5.01047872,3.66800129 C4.83910909,3.590343 4.78810662,3.26089019 4.77307537,3.20208507 C4.758948,3.14762036 4.78850835,2.98973975 4.90338525,2.98069023 C4.86997504,2.87903396 4.85193084,2.77050675 4.85193084,2.65847704 C4.85193084,2.63238426 4.85409012,2.60659313 4.85623266,2.58085227 C4.85409012,2.55511141 4.85193084,2.52940407 4.85193084,2.5032275 C4.85193084,1.90305997 5.36572171,1.57142857 5.99949476,1.57142857 C6.63326781,1.57142857 7.14700846,1.90259073 7.14700846,2.5032275 C7.14700846,2.52940407 7.14491614,2.55511141 7.14275686,2.58085227 C7.14446419,2.60659313 7.14700846,2.63238426 7.14700846,2.65847704 C7.14700846,2.77087543 7.12903122,2.87903396 7.095621,2.98069023 C7.21086616,2.98973975 7.24004151,3.14762036 7.22586393,3.20208507 C7.21086616,3.26089019 7.15988043,3.590343 6.9885108,3.66800129 C6.9653446,3.86363851 6.77725311,4.33766578 6.59254283,4.44450039 C6.54369964,4.58996305 6.59254283,4.75513355 6.59254283,4.75513355 C6.59254283,4.75513355 7.37415106,5.10258485 7.62137996,5.22101625 C8.34728218,5.56762963 8.57094315,5.53764891 8.57010622,6.16826639 C8.57094315,6.23776336 8.57094315,6.26482813 8.57142857,6.27893867 L3.42926828,6.27893867 C3.43059063,6.27942467 3.42717596,6.35751867 3.42926828,6.16826639" id="Fill-1" fill="#FFFFFF" mask="url(#mask-2)"></path>
                        <rect id="Rectangle-11-Copy" fill="#FFFFFF" x="3.42857143" y="9.28571429" width="5.14285714" height="1"></rect>
                        <rect id="Rectangle-11-Copy-3" fill="#FFFFFF" x="3.42857143" y="7.57142857" width="5.14285714" height="1"></rect>
                    </g>
                </g>
            </g>
        </g>
    </g>
</svg>