<?xml version="1.0" encoding="UTF-8"?>
<svg width="19px" height="19px" viewBox="0 0 19 19" version="1.1" xmlns="http://www.w3.org/2000/svg" xmlns:xlink="http://www.w3.org/1999/xlink">
    <!-- Generator: Sketch 51.1 (57501) - http://www.bohemiancoding.com/sketch -->
    <title>设置</title>
    <desc>Created with Sketch.</desc>
    <defs></defs>
    <g id="TRONLink" stroke="none" stroke-width="1" fill="none" fill-rule="evenodd">
        <g id="9.1设置-1" transform="translate(-20.000000, -220.000000)">
            <g id="自动锁定" transform="translate(20.000000, 219.000000)">
                <g id="设置" transform="translate(0.000000, 1.000000)">
                    <g id="Group-2" transform="translate(6.000000, 6.000000)">
                        <rect id="Rectangle-19" stroke-opacity="0.5" stroke="#515060" x="0.5" y="2.5" width="6" height="4" rx="1"></rect>
                        <path d="M1.16666667,2 C1.16666667,0.8954305 2.21133558,0 3.5,0 C4.78866442,0 5.83333333,0.8954305 5.83333333,2 L4.66666667,2 C4.66666667,1.44771525 4.14433221,1 3.5,1 C2.85566779,1 2.33333333,1.44771525 2.33333333,2 L1.16666667,2 Z" id="Combined-Shape" fill-opacity="0.5" fill="#515060"></path>
                    </g>
                    <path d="M18.5402478,11.0900458 C17.9961588,10.7552329 17.6613348,10.1693104 17.6613348,9.49968461 C17.6613348,8.83005886 17.9961588,8.28598793 18.5402478,7.90932345 C18.9169248,7.65821379 19.0843368,7.19784608 18.9587778,6.73747838 C18.7495128,6.02600101 18.4565418,5.35637526 18.1217178,4.72860111 C17.9124528,4.35193663 17.4520698,4.10082697 16.9916868,4.2263818 C16.3638919,4.35193663 15.7360969,4.18453019 15.2757139,3.72416248 C14.8153309,3.26379478 14.6479189,2.63602063 14.7734779,2.00824649 C14.8571839,1.58973039 14.6479189,1.12936268 14.2712419,0.878253026 C13.6434469,0.50158854 12.9319459,0.250478882 12.2622979,0.0412208336 C11.8437679,-0.0843339953 11.341532,0.0830724432 11.090414,0.45973693 C10.75559,1.00380786 10.169648,1.33862073 9.5,1.33862073 C8.83035201,1.33862073 8.28626303,1.00380786 7.90958603,0.45973693 C7.65846804,0.0830724432 7.19808505,-0.0843339953 6.73770206,0.0412208336 C6.02620107,0.250478882 5.35655309,0.543440149 4.7287581,0.878253026 C4.35208111,1.08751107 4.10096312,1.54787878 4.22652211,2.00824649 C4.35208111,2.63602063 4.18466911,3.30564639 3.72428612,3.72416248 C3.26390313,4.18453019 2.63610815,4.35193663 2.00831316,4.2263818 C1.58978317,4.14267858 1.12940018,4.35193663 0.878282184,4.72860111 C0.501605192,5.35637526 0.250487198,6.06785262 0.0412222021,6.73747838 C-0.0843367952,7.15599447 0.0830752012,7.65821379 0.459752193,7.90932345 C1.00384118,8.24413632 1.33866517,8.83005886 1.33866517,9.49968461 C1.33866517,10.1693104 1.00384118,10.7133813 0.459752193,11.0900458 C0.0830752012,11.3411554 -0.0843367952,11.8015231 0.0412222021,12.2618908 C0.250487198,12.9733682 0.543458191,13.642994 0.878282184,14.2707681 C1.08754718,14.6474326 1.54793017,14.8566906 2.00831316,14.7729874 C2.63610815,14.6474326 3.30575613,14.814839 3.72428612,15.2752067 C4.18466911,15.7355744 4.35208111,16.3633486 4.22652211,16.9911227 C4.14281611,17.4096388 4.35208111,17.8700065 4.7287581,18.1211162 C5.35655309,18.4977807 6.06805407,18.7488903 6.73770206,18.9581484 C7.15623205,19.0837032 7.65846804,18.9162968 7.90958603,18.5396323 C8.24441003,17.9955614 8.83035201,17.6607485 9.5,17.6607485 C10.169648,17.6607485 10.713737,17.9955614 11.090414,18.5396323 C11.299679,18.8325936 11.634503,19 11.9693269,19 C12.0530329,19 12.1785919,19 12.2622979,18.9581484 C12.9737989,18.7488903 13.6434469,18.4559291 14.2712419,18.1211162 C14.6479189,17.9118581 14.8990369,17.4514904 14.7734779,16.9911227 C14.6479189,16.3633486 14.8153309,15.6937228 15.2757139,15.2752067 C15.7360969,14.814839 16.3638919,14.6474326 16.9916868,14.7729874 C17.4102168,14.8566906 17.8705998,14.6474326 18.1217178,14.2707681 C18.4983948,13.642994 18.7495128,12.9315166 18.9587778,12.2618908 C19.0843368,11.8015231 18.9169248,11.3411554 18.5402478,11.0900458 Z M16.6420402,13.4093695 C15.7283346,13.2570903 14.814629,13.5616487 14.1674209,14.2088354 C13.5202128,14.856022 13.2156442,15.7696973 13.3679285,16.6833725 C12.9491468,16.9117913 12.492294,17.1021403 12.0354412,17.2544195 C11.5024463,16.5310933 10.6648828,16.0742557 9.71310618,16.0742557 C8.79940059,16.0742557 7.96183714,16.4930235 7.39077115,17.2544195 C6.93391836,17.1021403 6.47706557,16.9117913 6.05828384,16.6833725 C6.21056811,15.7696973 5.90599958,14.856022 5.25879146,14.2088354 C4.61158333,13.5616487 3.69787775,13.2570903 2.78417217,13.4093695 C2.55574577,12.9906017 2.36539044,12.5337641 2.21310618,12.0769264 C2.93645643,11.5439492 3.39330922,10.7064136 3.39330922,9.75466852 C3.39330922,8.84099327 2.9745275,8.00345763 2.21310618,7.4324106 C2.36539044,6.97557297 2.55574577,6.51873535 2.78417217,6.09996752 C3.69787775,6.25224673 4.61158333,5.94768831 5.25879146,5.30050168 C5.90599958,4.65331504 6.21056811,3.73963979 6.05828384,2.82596454 C6.47706557,2.59754573 6.93391836,2.40719672 7.39077115,2.25491751 C7.92376608,2.97824375 8.76132953,3.43508138 9.71310618,3.43508138 C10.6268118,3.43508138 11.4643752,3.01631355 12.0354412,2.25491751 C12.492294,2.40719672 12.9491468,2.59754573 13.3679285,2.82596454 C13.2156442,3.73963979 13.5202128,4.65331504 14.1674209,5.30050168 C14.814629,5.94768831 15.7283346,6.25224673 16.6420402,6.09996752 C16.8704666,6.51873535 17.0608219,6.97557297 17.2131062,7.4324106 C16.4897559,7.96538782 16.0329031,8.80292347 16.0329031,9.75466852 C16.0329031,10.6683438 16.4516849,11.5058794 17.2131062,12.0769264 C17.0608219,12.5337641 16.8704666,12.9906017 16.6420402,13.4093695 Z" id="Shape" fill="#515060" fill-rule="nonzero"></path>
                </g>
            </g>
        </g>
    </g>
</svg>