<?xml version="1.0" encoding="UTF-8"?>
<svg width="18px" height="18px" viewBox="0 0 18 18" version="1.1" xmlns="http://www.w3.org/2000/svg" xmlns:xlink="http://www.w3.org/1999/xlink">
    <!-- Generator: Sketch 51.1 (57501) - http://www.bohemiancoding.com/sketch -->
    <title>纸飞机</title>
    <desc>Created with Sketch.</desc>
    <defs></defs>
    <g id="TRONLink" stroke="none" stroke-width="1" fill="none" fill-rule="evenodd" stroke-linecap="round" stroke-linejoin="round">
        <g id="6.1首页-账户-方案二" transform="translate(-53.000000, -20.000000)" fill-rule="nonzero" stroke="#4E5383" stroke-width="1.5">
            <g id="导航" transform="translate(20.000000, 15.000000)">
                <g id="纸飞机" transform="translate(34.000000, 6.000000)">
                    <path d="M15.7515208,0.1 C15.949502,0.242 16.0274945,0.434 15.991498,0.67 L13.7057153,14.384 C13.6757181,14.556 13.5797272,14.69 13.4197424,14.786 C13.3377502,14.832 13.2437592,14.858 13.1437687,14.858 C13.0777749,14.858 13.0057818,14.842 12.929789,14.812 L8.88617341,13.16 L6.72437891,15.796 C6.61638918,15.934 6.47040306,16 6.28642055,16 C6.21042777,16 6.14443404,15.988 6.08843937,15.964 C5.97645001,15.922 5.88445876,15.854 5.81646522,15.754 C5.74847168,15.656 5.71247511,15.548 5.71247511,15.428 L5.71247511,12.314 L13.4257419,2.858 L3.88264905,11.118 L0.356984208,9.672 C0.13700512,9.59 0.017016526,9.426 0.00101804688,9.18 C-0.0109808125,8.942 0.0830102526,8.766 0.286990862,8.652 L15.1415788,0.08 C15.2315702,0.026 15.3255613,0 15.4275516,0 C15.5475402,0 15.6555299,0.034 15.7515208,0.1 Z" id="Shape"></path>
                </g>
            </g>
        </g>
    </g>
</svg>