<?xml version="1.0" encoding="UTF-8"?>
<svg width="19px" height="19px" viewBox="0 0 19 19" version="1.1" xmlns="http://www.w3.org/2000/svg" xmlns:xlink="http://www.w3.org/1999/xlink">
    <!-- Generator: Sketch 51.1 (57501) - http://www.bohemiancoding.com/sketch -->
    <title>语言</title>
    <desc>Created with Sketch.</desc>
    <defs></defs>
    <g id="TRONLink" stroke="none" stroke-width="1" fill="none" fill-rule="evenodd">
        <g id="9.1设置-1" transform="translate(-20.000000, -171.000000)">
            <g id="语言" transform="translate(20.000000, 170.000000)">
                <g transform="translate(0.000000, 1.000000)">
                    <path d="M10.5124512,1.21069336 C9.42439779,2.44783529 9.42439779,3.37076823 10.5124512,3.97949219 C12.1445312,4.89257813 11.4778402,5.32397461 11.0339355,6.26660156 C10.5900309,7.20922852 10.9865723,9.32446289 14.1560059,8.01269531 C16.2689616,7.13818359 16.5630697,5.61905924 15.0383301,3.45532227" id="Path-4" stroke-opacity="0.5" stroke="#515060"></path>
                    <path d="M2.92773438,13.1682129 C3.68033854,13.2554525 4.1949056,12.8526204 4.47143555,11.9597168 C4.88623047,10.6203613 6.15722656,10.8890888 6.59912109,12.5697885 C7.04101563,14.2504883 6.01586914,14.8239746 8.69677734,15.345459 C11.3776855,15.8669434 10.7080078,15.472168 10.7080078,17.184082" id="Path-7" stroke-opacity="0.5" stroke="#515060"></path>
                    <circle id="Oval-7" fill-opacity="0.5" fill="#515060" cx="7.5" cy="7.5" r="1.5"></circle>
                    <path d="M9.5,19 C4.25329488,19 0,14.7467051 0,9.5 C0,4.25329488 4.25329488,0 9.5,0 C14.7467051,0 19,4.25329488 19,9.5 C19,14.7467051 14.7467051,19 9.5,19 Z M9.5,17 C13.6421356,17 17,13.6421356 17,9.5 C17,5.35786438 13.6421356,2 9.5,2 C5.35786438,2 2,5.35786438 2,9.5 C2,13.6421356 5.35786438,17 9.5,17 Z" id="Combined-Shape" fill="#515060"></path>
                </g>
            </g>
        </g>
    </g>
</svg>