<?xml version="1.0" encoding="UTF-8"?>
<svg width="16px" height="16px" viewBox="0 0 16 16" version="1.1" xmlns="http://www.w3.org/2000/svg" xmlns:xlink="http://www.w3.org/1999/xlink">
    <!-- Generator: Sketch 53.2 (72643) - https://sketchapp.com -->
    <title>DAPP</title>
    <desc>Created with Sketch.</desc>
    <g id="V2.3" stroke="none" stroke-width="1" fill="none" fill-rule="evenodd">
        <g id="首页-DAPP" transform="translate(-228.000000, -20.000000)" stroke="#4E5383" stroke-width="2">
            <g id="导航" transform="translate(18.000000, 19.000000)">
                <g id="DAPP" transform="translate(210.000000, 1.000000)">
                    <path d="M6,6 L6,2 C6,1.44771525 5.55228475,1 5,1 L2,1 C1.44771525,1 1,1.44771525 1,2 L1,5 C1,5.55228475 1.44771525,6 2,6 L6,6 Z" id="Rectangle-7"></path>
                    <path d="M6,10 L2,10 C1.44771525,10 1,10.4477153 1,11 L1,14 C1,14.5522847 1.44771525,15 2,15 L5,15 C5.55228475,15 6,14.5522847 6,14 L6,10 Z" id="Rectangle-7-Copy-3"></path>
                    <path d="M10,6 L14,6 C14.5522847,6 15,5.55228475 15,5 L15,2 C15,1.44771525 14.5522847,1 14,1 L11,1 C10.4477153,1 10,1.44771525 10,2 L10,6 Z" id="Rectangle-7-Copy"></path>
                    <path d="M10,10 L10,14 C10,14.5522847 10.4477153,15 11,15 L14,15 C14.5522847,15 15,14.5522847 15,14 L15,11 C15,10.4477153 14.5522847,10 14,10 L10,10 Z" id="Rectangle-7-Copy-2"></path>
                </g>
            </g>
        </g>
    </g>
</svg>