<?xml version="1.0" encoding="UTF-8"?>
<svg width="28px" height="32px" viewBox="0 0 28 32" version="1.1" xmlns="http://www.w3.org/2000/svg" xmlns:xlink="http://www.w3.org/1999/xlink">
    <!-- Generator: Sketch 51.1 (57501) - http://www.bohemiancoding.com/sketch -->
    <title>删除</title>
    <desc>Created with Sketch.</desc>
    <defs></defs>
    <g id="TRONLink" stroke="none" stroke-width="1" fill="none" fill-rule="evenodd">
        <g id="6.4首页-删除" transform="translate(-166.000000, -244.000000)" fill="#A5A5BC">
            <g id="Group-6" transform="translate(30.000000, 162.000000)">
                <g id="Group-5" transform="translate(120.000000, 68.000000)">
                    <g id="删除" transform="translate(16.000000, 14.000000)">
                        <path d="M8.10526316,4.66666667 L19.8947368,4.66666667 L19.8947368,0 L8.10526316,0 L8.10526316,4.66666667 Z M10.3157895,4.66666667 L17.6842105,4.66666667 L17.6842105,2.33333333 L10.3157895,2.33333333 L10.3157895,4.66666667 Z M0,7 L28,7 L28,4.66666667 L0,4.66666667 L0,7 Z" id="Fill-1"></path>
                        <path d="M5.2,8 L5.2,29.75 L22.8,29.75 L22.8,8 L25,8 L25,32 L3,32 L3,8 L5.2,8 Z" id="Combined-Shape" fill-rule="nonzero"></path>
                        <polygon id="Fill-2" points="10 25 12 25 12 12 10 12"></polygon>
                        <polygon id="Fill-2-Copy" points="15 25 17 25 17 12 15 12"></polygon>
                    </g>
                </g>
            </g>
        </g>
    </g>
</svg>