<?xml version="1.0" encoding="UTF-8"?>
<svg width="16px" height="16px" viewBox="0 0 16 16" version="1.1" xmlns="http://www.w3.org/2000/svg" xmlns:xlink="http://www.w3.org/1999/xlink">
    <!-- Generator: Sketch 53.2 (72643) - https://sketchapp.com -->
    <title>形状 copy</title>
    <desc>Created with Sketch.</desc>
    <g id="V3.0" stroke="none" stroke-width="1" fill="none" fill-rule="evenodd" opacity="0.3">
        <g id="8.2转账" transform="translate(-326.000000, -21.000000)" fill="#505160" fill-rule="nonzero">
            <g id="导航">
                <path d="M334,21 C329.580598,21 326,24.5829219 326,29 C326,33.4194017 329.582922,37 334,37 C338.417078,37 342,33.4194017 342,29 C342,24.5805983 338.419402,21 334,21 Z M333.988382,34.1768806 C333.602672,34.1768806 333.291316,33.8655243 333.291316,33.4798141 C333.291316,33.094104 333.602672,32.7827476 333.988382,32.7827476 C334.374092,32.7827476 334.685449,33.094104 334.685449,33.4798141 C334.685449,33.8632007 334.374092,34.1768806 333.988382,34.1768806 L333.988382,34.1768806 Z M337.187918,27.3618937 C336.971827,28.1147255 336.363055,28.7211734 335.772872,29.3067093 C335.426663,29.6505954 335.101365,29.9758931 334.917804,30.2709846 C334.787685,30.4801046 334.713331,31.1818182 334.727273,31.6813825 C334.738891,32.0670927 334.434505,32.3877432 334.048795,32.3970375 L334.030206,32.3970375 C333.65379,32.3970375 333.344757,32.0972989 333.33314,31.7185594 C333.326169,31.4722626 333.314551,30.2082486 333.732791,29.5344177 C334.002324,29.1022364 334.401975,28.702585 334.787685,28.3191984 C335.250073,27.8591345 335.728725,27.3828057 335.847226,26.9761836 C335.893697,26.8181818 335.916933,26.2489108 335.591635,25.814406 C335.301191,25.4240488 334.783038,25.2242231 334.048795,25.2172524 L334.020912,25.2172524 C333.279698,25.2172524 332.761545,25.4798141 332.436247,26.0212024 C332.201568,26.4115597 332.141156,26.8251525 332.129538,26.932036 C332.113273,27.3038048 331.806564,27.5988963 331.432472,27.5988963 C331.046762,27.5988963 330.735405,27.2875399 330.735405,26.9018298 L330.735405,26.8739471 L330.735405,26.8693 C330.735405,26.8530351 330.737729,26.8367703 330.740052,26.8205054 C330.756317,26.6299739 330.839965,26.0002904 331.207087,25.3589893 C331.467325,24.9082196 331.811211,24.5480685 332.231775,24.2901539 C332.74528,23.9741505 333.361022,23.8161487 334.062736,23.8231194 C335.547488,23.8370607 336.323555,24.4597735 336.711589,24.9802498 C337.373802,25.8724949 337.313389,26.9297125 337.187918,27.3618937 L337.187918,27.3618937 Z" id="形状-copy"></path>
            </g>
        </g>
    </g>
</svg>