<?xml version="1.0" encoding="UTF-8"?>
<svg width="35px" height="42px" viewBox="0 0 35 42" version="1.1" xmlns="http://www.w3.org/2000/svg" xmlns:xlink="http://www.w3.org/1999/xlink">
    <!-- Generator: Sketch 53.2 (72643) - https://sketchapp.com -->
    <title>daoru</title>
    <desc>Created with Sketch.</desc>
    <defs>
        <polygon id="path-1" points="0.0351219512 0.117073171 359.64761 0.117073171 359.64761 419.707902 0.0351219512 419.707902"></polygon>
    </defs>
    <g id="Page-1" stroke="none" stroke-width="1" fill="none" fill-rule="evenodd">
        <g id="初始页面" transform="translate(-162.000000, -256.000000)">
            <g id="daoru" transform="translate(-44.000000, 77.000000)">
                <mask id="mask-2" fill="white">
                    <use xlink:href="#path-1"></use>
                </mask>
                <g id="Clip-2"></g>
                <path d="M239.541833,221 L207.458452,221 C206.656252,221 206,220.324987 206,219.499854 C206,218.674955 206.656252,218 207.458452,218 L239.541833,218 C240.343805,218 241,218.674955 241,219.499854 C241,220.324987 240.343805,221 239.541833,221 Z M211.434653,200.155438 L223.99556,213 L236.556754,200.155438 C237.147749,199.551111 237.147749,198.644503 236.556754,198.039941 C235.965529,197.435556 235.078865,197.435556 234.487871,198.039941 L225.473449,207.182281 L225.473449,180.511229 C225.473449,179.68 224.808451,179 223.99556,179 C223.182899,179 222.517959,179.68 222.517959,180.511229 L222.517959,207.182281 L213.577253,198.039941 C212.986201,197.435556 212.099594,197.435556 211.508369,198.039941 C210.843371,198.644503 210.843371,199.551111 211.434653,200.155438 Z" id="Fill-1" fill="#B1B4E5" mask="url(#mask-2)"></path>
            </g>
        </g>
    </g>
</svg>