<?xml version="1.0" encoding="UTF-8"?>
<svg width="19px" height="18px" viewBox="0 0 19 18" version="1.1" xmlns="http://www.w3.org/2000/svg" xmlns:xlink="http://www.w3.org/1999/xlink">
    <!-- Generator: Sketch 51.1 (57501) - http://www.bohemiancoding.com/sketch -->
    <title>TronLink</title>
    <desc>Created with Sketch.</desc>
    <defs>
        <path d="M2.32137213,0.744587755 C0.955859111,1.29181325 0,0.744587755 0,0.744587755 L0,10.728957 L1.70689127,12.0968156 L1.70689127,2.86469334 C5.73515467,1.42858543 8.7392833,2.11230957 8.7392833,2.11230957 C13.3820276,3.06971484 16.1239777,2.11613919 16.1130536,2.11230957 L16.1130536,0.334271211 C12.0165145,1.15504107 8.7392833,0.334271211 8.7392833,0.334271211 C7.86125843,0.171512315 7.03785408,0.109417745 6.29214742,0.109417745 C3.90700584,0.109554517 2.32137213,0.744587755 2.32137213,0.744587755" id="path-1"></path>
        <polygon id="path-3" points="0 0.0880602195 15.4302971 0.0880602195 15.4302971 13.5404399 0 13.5404399"></polygon>
    </defs>
    <g id="TRONLink" stroke="none" stroke-width="1" fill="none" fill-rule="evenodd">
        <g id="9.1设置-1" transform="translate(-20.000000, -124.000000)">
            <g id="计价货币" transform="translate(20.000000, 122.000000)">
                <g id="TronLink" transform="translate(0.000000, 2.000000)">
                    <g id="Group-3" transform="translate(0.000000, 0.027354)">
                        <mask id="mask-2" fill="white">
                            <use xlink:href="#path-1"></use>
                        </mask>
                        <g id="Clip-2"></g>
                        <path d="M2.32137213,0.744587755 C0.955859111,1.29181325 0,0.744587755 0,0.744587755 L0,10.728957 L1.70689127,12.0968156 L1.70689127,2.86469334 C5.73515467,1.42858543 8.7392833,2.11230957 8.7392833,2.11230957 C13.3820276,3.06971484 16.1239777,2.11613919 16.1130536,2.11230957 L16.1130536,0.334271211 C12.0165145,1.15504107 8.7392833,0.334271211 8.7392833,0.334271211 C7.86125843,0.171512315 7.03785408,0.109417745 6.29214742,0.109417745 C3.90700584,0.109554517 2.32137213,0.744587755 2.32137213,0.744587755" id="Fill-1" fill="#515060" mask="url(#mask-2)"></path>
                    </g>
                    <g id="Group-9" transform="translate(3.277231, 3.720203)">
                        <g id="Group-6">
                            <mask id="mask-4" fill="white">
                                <use xlink:href="#path-3"></use>
                            </mask>
                            <g id="Clip-5"></g>
                            <path d="M7.51032159,2.24913646 C13.7916815,3.06976954 15.4412212,2.1161939 15.4302971,2.11236428 L15.4302971,0.197553739 C11.4703093,1.01818683 7.91997549,0.33432592 7.91997549,0.33432592 C4.77929555,-0.349534986 2.32137213,0.607870282 2.32137213,0.607870282 C0.955859111,1.15495901 0,0.607870282 0,0.607870282 L0,9.77160642 L0,13.3276831 C0.546205206,12.7805944 1.36551302,13.0541388 1.36551302,13.0541388 C4.09653905,14.1483162 6.82756508,13.0541388 6.82756508,13.0541388 C10.1047963,11.8231891 13.2454763,13.0541388 13.2454763,13.0541388 C14.6109893,13.7379997 15.4302971,13.4644553 15.4302971,13.4644553 L15.4302971,4.43749136 L13.7916815,5.80521317 L13.7916815,11.4128726 C10.5144502,10.0451508 6.69101378,11.4128726 6.69101378,11.4128726 C3.67609759,12.2583982 2.04676746,11.3976909 1.70689127,11.1847366 L1.70689127,2.72783909 C3.95998775,1.83881991 7.51032159,2.24913646 7.51032159,2.24913646" id="Fill-4" fill="#515060" mask="url(#mask-4)"></path>
                        </g>
                        <polygon id="Fill-7" fill-opacity="0.5" fill="#515060" points="10.2187836 8.13034025 8.42105263 6.32970136 10.2187836 4.52906247 12.0165145 6.32970136"></polygon>
                    </g>
                </g>
            </g>
        </g>
    </g>
</svg>