<?xml version="1.0" encoding="UTF-8"?>
<svg width="16px" height="21px" viewBox="0 0 16 21" version="1.1" xmlns="http://www.w3.org/2000/svg" xmlns:xlink="http://www.w3.org/1999/xlink">
    <!-- Generator: Sketch 53.2 (72643) - https://sketchapp.com -->
    <title>icon2</title>
    <desc>Created with Sketch.</desc>
    <g id="移动端" stroke="none" stroke-width="1" fill="none" fill-rule="evenodd">
        <g id="2-usdt详情" transform="translate(-204.000000, -209.000000)">
            <g id="收益" transform="translate(20.000000, 192.000000)">
                <g id="分组-5" transform="translate(174.000000, 11.000000)">
                    <g id="icon2">
                        <g transform="translate(10.000000, 7.000000)">
                            <path d="M12.9264883,6.44492976 C14.7899072,7.80947648 16,10.0134221 16,12.5 L16,16 C16,18.209139 14.209139,20 12,20 L4,20 C1.790861,20 2.705415e-16,18.209139 0,16 L0,12.5 C-3.04517969e-16,10.0134221 1.21009277,7.80947648 3.07351173,6.44492976 C3.1258805,6.77762159 3.20542227,7.10006936 3.30953128,7.40940673 C1.83235714,8.61273743 0.888888889,10.4461893 0.888888889,12.5 L0.888888889,16.0625 C0.888888889,17.7193542 2.23203464,19.0625 3.88888889,19.0625 L12.1111111,19.0625 C13.7679654,19.0625 15.1111111,17.7193542 15.1111111,16.0625 L15.1111111,12.5 C15.1111111,10.4461893 14.1676429,8.61273743 12.6904687,7.40940673 C12.7945777,7.10006936 12.8741195,6.77762159 12.9264883,6.44492976 Z" id="合并形状" fill="#636ACC"></path>
                            <path d="M11.7148854,6.67731757 C14.1929964,7.41512302 16,9.71087316 16,12.4286716 L16,15.4286716 C16,17.6378106 14.209139,19.4286716 12,19.4286716 L4,19.4286716 C2.8954305,19.4286716 2,18.5332411 2,17.4286716 L2,12.4286716 C2,10.1968972 3.21849883,8.24971848 5.02651503,7.21611684 C5.8575864,7.70868915 6.88626864,8 8,8 C9.47439811,8 10.799744,7.48946526 11.7148854,6.67731757 Z" id="合并形状-copy-2" fill-opacity="0.3" fill="#636ACC"></path>
                            <path d="M5.76389349,5 C5.28885357,4.46924351 5,3.76835444 5,3 C5,1.34314575 6.34314575,0 8,0 C9.65685425,0 11,1.34314575 11,3 C11,3.76835444 10.7111464,4.46924351 10.2361065,5 L5.76389349,5 Z" id="合并形状" stroke="#636ACC" fill-rule="nonzero"></path>
                            <path d="M6.49981691,5 C6.18597241,4.58216973 6,4.06280296 6,3.5 C6,2.11928813 7.11928813,1 8.5,1 C9.88071187,1 11,2.11928813 11,3.5 C11,4.10616045 10.7842698,4.6619344 10.4253986,5.09473263 C10.2963133,5.03396787 10.1521235,5 10,5 L6.49981691,5 Z" id="合并形状" fill-opacity="0.3" fill="#636ACC"></path>
                            <path d="M8.32319997,15.6666667 L7.80988923,15.6666667 L7.80988923,14.9299099 C6.86692173,14.8476447 6.26360105,14.3697548 6,13.4962173 L6.8174938,13.2970972 C6.96447436,13.8573209 7.29527526,14.1586777 7.80988923,14.2011219 L7.80988922,12.628033 C7.13813099,12.4661259 6.70086602,12.2610272 6.49810158,12.0127371 C6.29527161,11.7645232 6.19391851,11.4678256 6.19391851,11.122652 C6.19391851,10.2279686 6.73253659,9.7115541 7.80988922,9.5734694 L7.80988922,9 L8.32319996,9 L8.32319996,9.57347703 C9.11152044,9.67970189 9.60962203,10.0872226 9.81749744,10.7961001 L9.04562381,10.9673486 C8.91380144,10.5585239 8.6730032,10.3381131 8.32319267,10.3062532 L8.32319268,11.6961366 C8.81998376,11.8448514 9.15458514,11.9589841 9.32699679,12.0386337 C9.49934293,12.1182833 9.65457967,12.2735942 9.79277984,12.5045819 C9.9309072,12.7355619 10,13.0063781 10,13.3170077 C10,13.7577608 9.85676167,14.1241489 9.57033596,14.416172 C9.2838593,14.7082637 8.86816671,14.8795122 8.32319268,14.9299099 L8.32319268,15.6666667 L8.32319997,15.6666667 Z M7.80988922,10.3062532 C7.58935286,10.3089298 7.40494279,10.3666786 7.25665901,10.479492 C7.10836794,10.5923741 7.03422241,10.7589405 7.03422241,10.9792903 C7.03422241,11.3510316 7.29277801,11.5726702 7.80988922,11.6443587 L7.80988922,10.3062532 Z M8.32319996,14.2011143 C8.56144273,14.1984987 8.76106195,14.1254452 8.92205764,13.982076 C9.08300237,13.8387067 9.16350386,13.6515283 9.16350386,13.4205483 C9.16350386,13.0329381 8.88338314,12.784709 8.32319996,12.6758227 L8.32319996,14.2011143 Z" id="形状" fill="#636ACC" fill-rule="nonzero"></path>
                        </g>
                    </g>
                </g>
            </g>
        </g>
    </g>
</svg>