<?xml version="1.0" encoding="UTF-8"?>
<svg width="13px" height="13px" viewBox="0 0 13 13" version="1.1" xmlns="http://www.w3.org/2000/svg" xmlns:xlink="http://www.w3.org/1999/xlink">
    <!-- Generator: Sketch 51.1 (57501) - http://www.bohemiancoding.com/sketch -->
    <title>fuzhi</title>
    <desc>Created with Sketch.</desc>
    <defs>
        <polygon id="path-1" points="0.00126829268 0.021095935 10.8227642 0.021095935 10.8227642 10.8438602 0.00126829268 10.8438602"></polygon>
    </defs>
    <g id="TRONLink" stroke="none" stroke-width="1" fill="none" fill-rule="evenodd">
        <g id="6.1首页-账户-方案二" transform="translate(-295.000000, -109.000000)">
            <g id="账户" transform="translate(0.000000, 58.000000)">
                <g id="fuzhi" transform="translate(295.000000, 51.000000)">
                    <g id="Group-3" transform="translate(0.000000, 2.156098)">
                        <mask id="mask-2" fill="white">
                            <use xlink:href="#path-1"></use>
                        </mask>
                        <g id="Clip-2"></g>
                        <path d="M9.7386065,1.10345691 L9.74050894,1.10525366 L9.74050894,9.75978699 L9.7386065,9.76160488 L1.08415772,9.76160488 L1.08225528,9.75978699 L1.08225528,1.10525366 L1.08415772,1.10345691 L9.7386065,1.10345691 Z M9.74050894,0.021095935 L1.08225528,0.021095935 C0.485269919,0.0229138211 0.00173333333,0.506450407 0,1.10345691 L0,9.76160488 C0.00173333333,10.3585902 0.485269919,10.8421268 1.08225528,10.8438602 L9.74050894,10.8438602 C10.3374943,10.8421268 10.8210309,10.3585902 10.8227642,9.76160488 L10.8227642,1.10345691 C10.8210309,0.506450407 10.3374943,0.0229138211 9.74050894,0.021095935 Z" id="Fill-1" fill="#636acc" mask="url(#mask-2)"></path>
                    </g>
                    <path d="M2.16451057,6.50632033 L8.65825366,6.50632033 L8.65825366,5.42406504 L2.16451057,5.42406504 L2.16451057,6.50632033 Z M2.16451057,9.75319187 L8.65825366,9.75319187 L8.65825366,8.67093659 L2.16451057,8.67093659 L2.16451057,9.75319187 Z" id="Fill-4" fill="#636acc"></path>
                    <path d="M11.9050195,0.0126829268 L3.24687154,0.0126829268 C2.64986504,0.0144162602 2.16632846,0.497952846 2.16451057,1.09493821 L2.16451057,1.6361187 L3.24687154,1.6361187 L3.24687154,1.09684065 L3.24868943,1.09493821 L11.9032016,1.09493821 L11.9050195,1.09684065 L11.9050195,9.75128943 L11.9032016,9.75319187 L11.3639447,9.75319187 L11.3639447,10.8354472 L11.9050195,10.8354472 C12.5020049,10.8337138 12.9855415,10.3501772 12.9872748,9.75319187 L12.9872748,1.09493821 C12.9855415,0.497952846 12.5020049,0.0144162602 11.9050195,0.0126829268 Z" id="Fill-5" fill="#636acc"></path>
                </g>
            </g>
        </g>
    </g>
</svg>
