<?xml version="1.0" encoding="UTF-8"?>
<svg width="19px" height="17px" viewBox="0 0 19 17" version="1.1" xmlns="http://www.w3.org/2000/svg" xmlns:xlink="http://www.w3.org/1999/xlink">
    <!-- Generator: Sketch 51.1 (57501) - http://www.bohemiancoding.com/sketch -->
    <title>Twitter</title>
    <desc>Created with Sketch.</desc>
    <defs></defs>
    <g id="TRONLink" stroke="none" stroke-width="1" fill="none" fill-rule="evenodd">
        <g id="6.1首页-账户-方案二" transform="translate(-19.000000, -20.000000)" fill="#4E5383" fill-rule="nonzero" stroke="#636ACC">
            <g id="导航" transform="translate(20.000000, 15.000000)">
                <g id="Twitter" transform="translate(0.000000, 6.000000)">
                    <path d="M4.91415267,15.2848891 C3.36539611,15.1923945 1.80515256,14.6801544 0.276736723,13.7623705 C0.19295054,13.7172622 0.00820493841,13.6180978 0.000114454565,13.3229441 C-0.0020627739,13.2440328 0.0269062341,13.1678151 0.0798567538,13.1131414 C0.132807274,13.0584676 0.204794829,13.0304433 0.278015186,13.0359994 C1.52914091,13.1309156 2.62454377,12.9370812 3.62673424,12.443455 C3.90906184,12.3046207 4.18757317,12.1610663 4.46585553,11.9677039 C3.28405234,11.6743151 2.41256909,10.9218189 1.87634508,9.73110704 C1.82100919,9.60832129 1.70579601,9.35265277 1.84314355,9.13792651 C1.95787968,8.9585604 2.16453068,8.94550813 2.28962796,8.95174695 C1.15625322,8.18234023 0.571142824,7.05600729 0.507697341,5.53437116 C0.503940966,5.44413989 0.540976196,5.35752244 0.607112761,5.30185986 C0.673249325,5.24619727 0.76032632,5.22835801 0.840857654,5.2539731 C0.977403762,5.29741909 1.10667988,5.34622146 1.23170087,5.39340252 C1.30006933,5.41919923 1.36759822,5.44470861 1.43501261,5.46876091 C0.994042696,4.91637899 0.726884773,4.33005294 0.608847557,3.66775284 C0.427937307,2.65343136 0.5688149,1.7391978 1.03955172,0.872884139 C1.08143932,0.795799141 1.1550609,0.744890378 1.2376536,0.735898182 C1.32024631,0.726905986 1.40186026,0.760913639 1.45726148,0.827406415 C2.19280923,1.71022011 2.81031975,2.31628874 3.45948624,2.79257348 C4.77812176,3.76004223 6.28678841,4.3527918 7.94356448,4.55436319 C7.98985583,4.55998635 8.02321001,4.56275687 8.0472716,4.56384456 C8.04674019,4.53700001 8.04505286,4.51019634 8.04221504,4.48351974 C7.87450909,2.82116125 8.47936869,1.48952184 9.79142115,0.632566397 C11.152131,-0.255932013 12.5817246,-0.203702412 13.8168983,0.77971228 C14.2720266,1.14226166 14.6112739,1.18449684 15.1133422,0.941203329 C15.3640139,0.819833629 15.612682,0.705133727 15.9006004,0.572312527 C16.029972,0.512633268 16.1663845,0.449711483 16.3128911,0.3815975 C16.3538273,0.262187496 16.4646317,0.187630279 16.5823784,0.20026692 C16.7001251,0.212903562 16.7950466,0.309539399 16.8132369,0.435294905 C16.8314273,0.56105041 16.7682878,0.684133405 16.6596755,0.73464501 C16.4702549,1.28743739 16.2240674,1.74120902 15.8956202,2.13125846 C15.9479794,2.11428641 16.0005485,2.09676025 16.0535565,2.07909041 C16.249541,2.01374697 16.452204,1.94618711 16.6614882,1.90315155 C16.7473219,1.88548044 16.8356629,1.91543658 16.8965513,1.98286071 C17.0022,2.0997857 17.0214486,2.22531793 16.9747848,2.33075707 C16.6872098,2.98080529 16.2138016,3.42796868 15.7129354,3.86616376 C15.5164929,4.0377929 15.4514637,4.19696494 15.4345004,4.54748817 C15.3245155,6.79116523 14.7997212,8.7398733 13.8747148,10.3396384 C12.9037223,12.0189074 11.477945,13.3378639 9.63695765,14.2598549 C8.25649855,14.9511122 6.84281884,15.3002194 5.42757447,15.3002194 C5.25637663,15.3002194 5.08533144,15.2951093 4.91415267,15.2848891 Z M9.4176939,13.7532996 C12.8497984,12.0344634 14.6996205,8.92734576 14.9157549,4.5182437 C14.9362292,4.09500947 15.023908,3.74830341 15.3852705,3.43258622 C15.678608,3.17595314 15.9609166,2.91737043 16.1889387,2.6188921 C15.8304383,2.73837372 15.4584856,2.85996917 15.0133942,2.85668558 C14.8995689,2.85594452 14.7994543,2.77557905 14.7664139,2.65842601 C14.7333735,2.54127297 14.7751065,2.4146317 14.8693681,2.34600525 C15.3215388,2.01664064 15.6488221,1.6502741 15.8985587,1.18129534 C15.6968689,1.27461087 15.5116844,1.36109241 15.3266908,1.45065234 C15.0512515,1.58413027 14.7971452,1.65166962 14.5516446,1.65169012 C14.1988687,1.65171065 13.8637239,1.51230173 13.5077614,1.22876374 C12.438252,0.377246757 11.2463547,0.336222399 10.0610406,1.11016456 C8.91770538,1.85693502 8.41224052,2.97161123 8.55868984,4.42324532 C8.57530969,4.58781474 8.58025175,4.82501309 8.43187523,4.98391834 C8.27080958,5.1563889 8.03876134,5.12819108 7.88525189,5.10957721 C6.1435066,4.89766251 4.55599581,4.273411 3.1667593,3.25414362 C2.5581216,2.8075959 1.98001404,2.25794346 1.32247085,1.49742296 C1.0488825,2.14316146 0.984597453,2.80856046 1.11908277,3.5625343 C1.26041831,4.35560337 1.6608976,5.03050426 2.37938662,5.68656554 C2.46167263,5.76171181 2.49216973,5.88376159 2.45599379,5.99314837 C2.41981785,6.10253515 2.3245097,6.17645739 2.21658457,6.17883727 C1.76994749,6.18866752 1.40881394,6.05237802 1.05970162,5.92060344 C1.22941111,7.35883638 1.98064374,8.32045625 3.39777717,8.92757151 C3.50681741,8.97431851 3.57316181,9.09390329 3.55963104,9.21931066 C3.54610028,9.34471803 3.45605672,9.44478448 3.33996068,9.46343289 C2.96846595,9.52300952 2.65469228,9.54039203 2.35740491,9.51736586 C2.83046965,10.5489467 3.56281173,11.1735676 4.59534154,11.4264451 C4.70244513,11.4531653 4.81393744,11.4761915 4.94302276,11.5028501 C5.00230851,11.515102 5.06581122,11.5282159 5.13524825,11.5429715 C5.23261683,11.5636657 5.31050992,11.6422265 5.33596082,11.7454045 C5.36141173,11.8485826 5.32997109,11.9583401 5.25494552,12.0282245 C4.77426733,12.4758805 4.2938181,12.7298456 3.8429068,12.9515495 C3.00651415,13.3634964 2.11352621,13.5825529 1.13305031,13.614178 C3.90488302,15.0723382 6.68877514,15.1198887 9.4176939,13.7532996 Z" id="Shape"></path>
                </g>
            </g>
        </g>
    </g>
</svg>
