<?xml version="1.0" encoding="UTF-8"?>
<svg width="65px" height="65px" viewBox="0 0 65 65" version="1.1" xmlns="http://www.w3.org/2000/svg" xmlns:xlink="http://www.w3.org/1999/xlink">
    <!-- Generator: Sketch 51.1 (57501) - http://www.bohemiancoding.com/sketch -->
    <title>Group 7</title>
    <desc>Created with Sketch.</desc>
    <defs>
        <linearGradient x1="8.26742761%" y1="4.09366846%" x2="96.0734561%" y2="100.681258%" id="linearGradient-1">
            <stop stop-color="#6D72CC" offset="0%"></stop>
            <stop stop-color="#565BA7" offset="100%"></stop>
        </linearGradient>
        <path d="M7.3072126,0 C3.2713192,0 0,3.59885994 0,8.03838669 L0,56.9616133 C0,61.4011401 3.2713192,65 7.3072126,65 L57.6927874,65 C61.7283416,65 65,61.4011401 65,56.9616133 L65,8.03838669 C65,3.59885994 61.7283416,0 57.6927874,0 L7.3072126,0 Z" id="path-2"></path>
    </defs>
    <g id="方案1" stroke="none" stroke-width="1" fill="none" fill-rule="evenodd">
        <g id="1欢迎回来" transform="translate(-148.000000, -93.000000)">
            <g id="logo" transform="translate(130.000000, 93.000000)">
                <g id="Group-7" transform="translate(18.000000, 0.000000)">
                    <mask id="mask-3" fill="white">
                        <use xlink:href="#path-2"></use>
                    </mask>
                    <use id="Mask" fill="url(#linearGradient-1)" xlink:href="#path-2"></use>
                    <path d="M55.1459967,50.8464883 L85.3058166,45.397437 L50.7112085,87.4441357 L55.1459967,50.8464883 Z M50.8146727,48.7967317 L46.1368144,87.4027801 L20.8929622,24.0405912 L50.8146727,48.7967317 Z M52.859154,44.5957732 L24.1488962,20.8417124 L71.0713369,29.4557097 L52.859154,44.5957732 Z M76.0546272,31.2170371 L86.0119954,40.6609756 L58.7750396,45.5815934 L76.0546272,31.2170371 Z M77.1009623,25.9507283 L12,14 L46.2629557,100 L94,41.9787015 L77.1009623,25.9507283 Z" id="Fill-4" fill="#FFFFFF" mask="url(#mask-3)"></path>
                </g>
            </g>
        </g>
    </g>
</svg>