<?xml version="1.0" encoding="UTF-8"?>
<svg width="100px" height="19px" viewBox="0 0 100 19" version="1.1" xmlns="http://www.w3.org/2000/svg" xmlns:xlink="http://www.w3.org/1999/xlink">
    <!-- Generator: Sketch 51.1 (57501) - http://www.bohemiancoding.com/sketch -->
    <title>Group 22</title>
    <desc>Created with Sketch.</desc>
    <defs></defs>
    <g id="方案1" stroke="none" stroke-width="1" fill="none" fill-rule="evenodd">
        <g id="1欢迎回来" transform="translate(-130.000000, -169.000000)" fill="#686665">
            <g id="logo" transform="translate(130.000000, 93.000000)">
                <g id="Group-22" transform="translate(0.000000, 76.000000)">
                    <polygon id="Fill-1" points="6.29109415 18.7747831 9.19516539 18.7747831 9.19516539 0.310261972 6.29109415 0.310261972"></polygon>
                    <polygon id="Fill-2" points="0 2.92102254 15.4860051 2.92102254 15.4860051 0.310261972 0 0.310261972"></polygon>
                    <polygon id="Fill-3" points="53.1806616 18.8093042 64.2496183 18.8093042 64.2496183 16.1985437 53.1806616 16.1985437"></polygon>
                    <polygon id="Fill-4" points="53.1015267 18.7747831 56.005598 18.7747831 56.005598 0.26744507 53.1015267 0.26744507"></polygon>
                    <polygon id="Fill-5" points="86.321374 18.7747831 89.2256997 18.7747831 89.2256997 0.26744507 86.321374 0.26744507"></polygon>
                    <polygon id="Fill-6" points="89.9296947 9.40888028 96.3622646 18.7748099 99.8726972 18.7748099 93.4401272 9.40888028"></polygon>
                    <polygon id="Fill-7" points="96.0133588 2.91334225 89.9296438 9.4086662 93.3779898 9.4183 99.0889313 2.92163803"></polygon>
                    <polygon id="Fill-8" points="67.0895674 18.7747831 69.9936387 18.7747831 69.9936387 8.0922338 67.0895674 8.0922338"></polygon>
                    <g id="Group-21" transform="translate(16.284987, 3.020572)">
                        <path d="M54,2.00199334 C54,2.97762569 53.248045,3.76814583 52.3206532,3.76814583 C51.3929728,3.76814583 50.6410178,2.97762569 50.6410178,2.00199334 C50.6410178,1.02666445 51.3929728,0.235840845 52.3206532,0.235840845 C53.248045,0.235840845 54,1.02666445 54,2.00199334" id="Fill-9"></path>
                        <path d="M55.8556489,15.7543986 L58.3683715,15.7543986 L58.3683715,8.68077887 L58.3683715,8.70727183 C58.5083206,6.97827183 59.8989059,5.59368028 61.579313,5.59368028 C63.2594656,5.59368028 64.6500509,6.97827183 64.79,8.70727183 L64.79,8.68077887 L64.79,15.7543986 L67.3027226,15.7543986 L67.3027226,8.12014507 C67.0531043,5.03786338 64.5744784,2.54110282 61.579313,2.54110282 C58.5838931,2.54110282 56.1052672,5.03786338 55.8556489,8.12014507" id="Fill-11"></path>
                        <path d="M22.2054962,15.7543986 L24.7319593,15.7543986 L24.7319593,8.64224366 L24.7319593,8.66873662 C24.8726718,6.93037042 26.2708906,5.53855352 27.9602036,5.53855352 C29.649771,5.53855352 31.0477354,6.93037042 31.1884478,8.66873662 L31.1884478,8.64224366 L31.1884478,15.7543986 L33.7149109,15.7543986 L33.7149109,8.07839859 C33.4642748,4.97952535 30.9719084,2.4691169 27.9602036,2.4691169 C24.9487532,2.4691169 22.4563868,4.97952535 22.2054962,8.07839859" id="Fill-13"></path>
                        <path d="M14.7585242,9.16329859 C14.7585242,9.89145352 14.1974555,10.4815239 13.5050891,10.4815239 C12.8129771,10.4815239 12.2516539,9.89145352 12.2516539,9.16329859 C12.2516539,8.43541127 12.8129771,7.84507324 13.5050891,7.84507324 C14.1974555,7.84507324 14.7585242,8.43541127 14.7585242,9.16329859" id="Fill-15"></path>
                        <path d="M13.5923664,13.0691901 C11.5412214,13.0691901 9.8783715,11.3203873 9.8783715,9.16321831 C9.8783715,7.0063169 11.5412214,5.25751408 13.5923664,5.25751408 C15.6435115,5.25751408 17.3061069,7.0063169 17.3061069,9.16321831 C17.3061069,11.3203873 15.6435115,13.0691901 13.5923664,13.0691901 M13.5923664,2.57209155 C10.1310433,2.57209155 7.32519084,5.52324648 7.32519084,9.16321831 C7.32519084,12.8034577 10.1310433,15.7543451 13.5923664,15.7543451 C17.0536896,15.7543451 19.8592875,12.8034577 19.8592875,9.16321831 C19.8592875,5.52324648 17.0536896,2.57209155 13.5923664,2.57209155" id="Fill-17"></path>
                        <path d="M5.93254453,2.46965211 C5.92465649,2.46965211 5.9170229,2.4691169 5.90938931,2.4691169 C2.89768448,2.4691169 0.405318066,4.97952535 0.154427481,8.07839859 L0.154427481,15.7543986 L2.68114504,15.7543986 L2.68114504,8.66900423 C2.82160305,6.93037042 4.21982188,5.53855352 5.90938931,5.53855352 C5.9170229,5.53855352 5.92465649,5.53962394 5.93254453,5.53962394 L5.93254453,2.46965211 Z" id="Fill-19"></path>
                    </g>
                </g>
            </g>
        </g>
    </g>
</svg>