<?xml version="1.0" encoding="UTF-8"?>
<svg width="15px" height="15px" viewBox="0 0 15 15" version="1.1" xmlns="http://www.w3.org/2000/svg" xmlns:xlink="http://www.w3.org/1999/xlink">
    <!-- Generator: Sketch 51.1 (57501) - http://www.bohemiancoding.com/sketch -->
    <title>logo</title>
    <desc>Created with Sketch.</desc>
    <defs>
        <polygon id="path-1" points="0 0.0794802581 14.9191842 0.0794802581 14.9191842 14.7488708 0 14.7488708"></polygon>
    </defs>
    <g id="TRONLink" stroke="none" stroke-width="1" fill="none" fill-rule="evenodd">
        <g id="6.1首页-账户-带广告" transform="translate(-230.000000, -329.000000)">
            <g id="Group-10" transform="translate(14.000000, 300.000000)">
                <g id="tonken1">
                    <g id="logo" transform="translate(216.000000, 29.000000)">
                        <g id="Group-3" transform="translate(0.000000, 0.006814)">
                            <mask id="mask-2" fill="white">
                                <use xlink:href="#path-1"></use>
                            </mask>
                            <g id="Clip-2"></g>
                            <path d="M0.685236842,8.69569224 C-2.63157895e-05,4.04107303 3.7182193,0.753272745 7.45962281,0.753272745 C12.3581316,0.753272745 14.6605877,4.72452562 14.2339211,8.69569224 L0.685236842,8.69569224 Z M9.83962281,10.5478453 L9.83935965,8.73157264 L11.6862895,8.73157264 L11.6865526,10.5478453 L9.83962281,10.5478453 Z M6.53628947,10.5478453 L6.53602632,8.73157264 L8.38286842,8.73157264 L8.3832193,10.5478453 L6.53628947,10.5478453 Z M3.23286842,10.5478453 L3.23260526,8.73157264 L5.07953509,8.73157264 L5.07988596,10.5478453 L3.23286842,10.5478453 Z M7.45962281,0.0794802581 C3.33979825,0.0794802581 -2.63157895e-05,3.363313 -2.63157895e-05,7.4141755 C-2.63157895e-05,11.465038 3.33979825,14.7488708 7.45962281,14.7488708 C11.5793596,14.7488708 14.9191842,11.465038 14.9191842,7.4141755 C14.9191842,3.363313 11.5793596,0.0794802581 7.45962281,0.0794802581 Z" id="Fill-1" fill="#EDC657" mask="url(#mask-2)"></path>
                        </g>
                        <polygon id="Fill-4" fill="#EDC657" points="3.23290351 8.73834334 5.07983333 8.73834334 5.07957018 6.92207066 3.23264035 6.92207066"></polygon>
                        <polygon id="Fill-6" fill="#EDC657" points="6.53625439 8.73834334 8.38318421 8.73834334 8.38292105 5.10579798 6.53599123 5.10579798"></polygon>
                        <polygon id="Fill-8" fill="#EDC657" points="9.83964912 8.73834334 11.6865789 8.73834334 11.6863158 3.28943905 9.83938596 3.28943905"></polygon>
                        <path d="M1.48584211,6.69004696 C1.85233333,3.7103351 4.4285614,1.40001693 7.55785965,1.40001693 C10.6871579,1.40001693 13.263386,3.7103351 13.6297895,6.69004696 L13.8872456,6.69004696 C13.5195263,3.57147106 10.8281228,1.1494579 7.55785965,1.1494579 C4.28759649,1.1494579 1.59610526,3.57147106 1.22838596,6.69004696 L1.48584211,6.69004696 Z" id="Fill-10" fill="#EDC657"></path>
                    </g>
                </g>
            </g>
        </g>
    </g>
</svg>