<?xml version="1.0" encoding="UTF-8"?>
<svg width="14px" height="14px" viewBox="0 0 14 14" version="1.1" xmlns="http://www.w3.org/2000/svg" xmlns:xlink="http://www.w3.org/1999/xlink">
    <!-- Generator: Sketch 51.1 (57501) - http://www.bohemiancoding.com/sketch -->
    <title>question</title>
    <desc>Created with Sketch.</desc>
    <defs>
        <circle id="path-1" cx="7" cy="7" r="7"></circle>
    </defs>
    <g id="租用银行-web" stroke="none" stroke-width="1" fill="none" fill-rule="evenodd">
        <g id="TronBank-默认" transform="translate(-78.000000, -289.000000)">
            <g id="接收账户-copy" transform="translate(18.000000, 276.000000)">
                <g id="Group-4" transform="translate(12.000000, 10.000000)">
                    <g id="question" transform="translate(48.000000, 3.000000)">
                        <mask id="mask-2" fill="white">
                            <use xlink:href="#path-1"></use>
                        </mask>
                        <circle stroke="#888998" cx="7" cy="7" r="6.5"></circle>
                        <path d="M7.12138462,3 C7.83201088,3 8.40343374,3.19413725 8.83567033,3.58241758 C9.27523297,3.96337187 9.49501099,4.48717615 9.49501099,5.15384615 C9.49501099,5.68864736 9.35581824,6.13552934 9.07742857,6.49450549 C8.98219,6.6117222 8.67450077,6.89743363 8.15435165,7.35164835 C7.94922242,7.52014736 7.7953778,7.71062165 7.69281319,7.92307692 C7.57559648,8.1355322 7.51698901,8.37728802 7.51698901,8.64835165 L7.51698901,8.83516484 L6.34116484,8.83516484 L6.34116484,8.64835165 C6.34116484,8.2234411 6.41442418,7.87545923 6.56094505,7.6043956 C6.70013989,7.31135385 7.11405516,6.85714593 7.8027033,6.24175824 L7.98951648,6.03296703 C8.19464571,5.76922945 8.29720879,5.50183286 8.29720879,5.23076923 C8.29720879,4.85714099 8.19098275,4.55677769 7.97852747,4.32967033 C7.75874615,4.10988901 7.44739396,4 7.04446154,4 C6.54629055,4 6.18731978,4.15750758 5.96753846,4.47252747 C5.76973527,4.73626505 5.67083516,5.10988769 5.67083516,5.59340659 L4.51698901,5.59340659 C4.51698901,4.7948678 4.74775593,4.16483747 5.2092967,3.7032967 C5.67083747,3.23442989 6.30819374,3 7.12138462,3 Z M6.92358242,9.42857143 C7.16534187,9.42857143 7.35947912,9.50183077 7.506,9.64835165 C7.65984692,9.78754648 7.73676923,9.9743578 7.73676923,10.2087912 C7.73676923,10.4285725 7.65618396,10.6190468 7.49501099,10.7802198 C7.33383802,10.9267407 7.14336374,11 6.92358242,11 C6.69647505,11 6.50600077,10.9230777 6.35215385,10.7692308 C6.19830692,10.6153838 6.12138462,10.4285725 6.12138462,10.2087912 C6.12138462,9.9743578 6.19830692,9.78754648 6.35215385,9.64835165 C6.49867473,9.50183077 6.68914901,9.42857143 6.92358242,9.42857143 Z" id="？" fill="#888998" mask="url(#mask-2)"></path>
                    </g>
                </g>
            </g>
        </g>
    </g>
</svg>