<?xml version="1.0" encoding="UTF-8"?>
<svg width="13px" height="14px" viewBox="0 0 13 14" version="1.1" xmlns="http://www.w3.org/2000/svg" xmlns:xlink="http://www.w3.org/1999/xlink">
    <!-- Generator: Sketch 51.1 (57501) - http://www.bohemiancoding.com/sketch -->
    <title>youjianjieshou</title>
    <desc>Created with Sketch.</desc>
    <defs></defs>
    <g id="租用银行-web" stroke="none" stroke-width="1" fill="none" fill-rule="evenodd">
        <g id="租用记录-有效" transform="translate(-18.000000, -120.000000)">
            <g id="交易记录" transform="translate(18.000000, 117.000000)">
                <g id="Group-5">
                    <g id="youjianjieshou" transform="translate(0.000000, 3.000000)">
                        <g id="Group-3" fill="#FFFFFF">
                            <path d="M2.1272348,0.0626846847 L10.865299,0.0185405405 L10.865299,3.88907703 C10.865299,3.88907703 11.9141267,4.34466667 12.0405693,4.4277018 C12.4200507,4.68014009 12.9822348,4.78085495 12.9822348,6.0575036 L12.9822348,11.7732212 C12.9822348,12.5007387 12.3954341,13.0887387 11.6734291,13.0887387 L1.3120777,13.0887387 C0.588271959,13.0887387 0.00325,12.498995 0.00325,11.7732212 L0.00325,6.3752973 C0.00325,6.27994595 0.0138125,6.1069009 0.00325,5.8984964 C-0.0195658784,5.44301712 0.0682719595,4.99623423 0.525050676,4.65892883 C0.790277027,4.4629509 1.13117568,4.33232838 1.42101858,4.20163964 C1.81448818,4.02331937 2.1272348,3.8855455 2.1272348,3.8855455 L2.1272348,0.0626846847 Z" id="Fill-1"></path>
                        </g>
                        <path d="M12.9542064,5.28536756 C12.7993835,4.74772983 12.2978971,4.50007081 11.8474172,4.2769427 L10.8796365,3.84474179 L10.8796365,1.00035178 C10.8796365,0.448067031 10.4319213,0.000351780529 9.87963651,0.000351780529 C9.87796369,0.000351780529 9.87629088,0.000355977997 9.87461808,0.000364372892 L3.12240547,0.0342502572 C2.57208646,0.0370120255 2.12742389,0.483911722 2.12742389,1.03423766 L2.12742389,3.84294095 L1.17374201,4.2681142 C0.626440039,4.48419269 0,4.83557555 0,5.62972275 L0,11.6928778 C0,12.4132126 0.587772802,13 1.30923131,13 L11.6908787,13 C12.4122492,13 13,12.4132126 13,11.6928778 L13,5.62972275 C13,5.50326885 12.9841196,5.38909138 12.9542064,5.28536756 Z M10.8796365,4.61596126 L11.5412906,4.91116678 C11.82628,5.051676 12.0075629,5.15539982 12.121937,5.25198618 L10.8796365,5.92319331 L10.8796365,4.61596126 Z M2.83126439,4.06435607 L2.83126439,0.738495431 L10.175796,0.701600232 L10.175796,6.30262091 L6.67421152,8.19481756 C6.56689784,8.25281769 6.43664336,8.25281769 6.32932968,8.19481756 L2.83126439,6.30613474 L2.83126439,4.06435607 Z M2.12742389,4.61244744 L2.12742389,5.9266193 L0.864008202,5.24324554 C0.973125475,5.13600788 2.12742389,4.61244744 2.12742389,4.61244744 Z M12.2961595,11.6928778 C12.2961595,12.0266695 12.0251809,12.2972343 11.6908787,12.2972343 L1.30923131,12.2972343 C0.974841086,12.2972343 0.703840499,12.0266695 0.703840499,11.6928778 L0.703840499,5.95655272 L5.99150823,8.81507417 C6.14985035,8.90111905 6.32409486,8.94330695 6.50005499,8.94330695 C6.67421152,8.94330695 6.84845603,8.90111905 7.00851376,8.81507417 L12.2961595,5.95655272 L12.2961595,11.6928778 Z" id="Fill-7" fill="#505160"></path>
                        <path d="M6.1284272,6 C6.11593996,6 6.10654312,5.99706314 6.10028694,5.99166311 C6.05651249,5.98041164 6.04088459,5.9583824 6.05337183,5.92507383 L6.34422788,4.40198009 L5.07773366,4.40198009 C5.04647158,4.40198009 5.02456238,4.3908568 5.01205001,4.36867709 C4.99330658,4.34664785 4.99642211,4.32169847 5.02144685,4.29376764 L6.97274831,2.02988845 C6.99777933,1.99658545 7.02589447,1.99123 7.05718168,2.01323695 C7.08843747,2.01878745 7.10409678,2.04114549 7.10409678,2.07982622 L6.81324073,3.60296456 L7.92964305,3.60296456 C7.96090513,3.60296456 7.98278921,3.61421602 7.99532671,3.63624526 C8.00155776,3.65843054 8.00155776,3.68339664 7.99532671,3.711177 L6.19411086,5.97505619 C6.17534231,5.99166311 6.15345822,6 6.1284272,6 Z" id="Fill-1" fill="#505160"></path>
                    </g>
                </g>
            </g>
        </g>
    </g>
</svg>